<svg id="레이어_1" data-name="레이어 1" xmlns="http://www.w3.org/2000/svg" xmlns:xlink="http://www.w3.org/1999/xlink" viewBox="0 0 250 250"><defs><style>.cls-1{fill:#fff;}.cls-2{clip-path:url(#clip-path);}.cls-3{fill:#86898d;}</style><clipPath id="clip-path"><circle class="cls-1" cx="125" cy="125" r="125"/></clipPath></defs><title>대지 8</title><circle class="cls-1" cx="125" cy="125" r="125"/><g class="cls-2"><path class="cls-1" d="M199.08,154.28c.38,4.94-1.34,10.54-5.1,13.79-7.29,6.31-18.55,6.84-27.68,8.28-11.43,1.8-23.52,2.52-34.91.51-5.39-1-11.46.24-16.95.35a165.06,165.06,0,0,1-18.61-.55c-11-1-30.39-3.23-35.92-14.78-1.53-3.2-1-7,.16-10.37S63,145,64,141.63c1.32-4.53,3.08-9.46,1.51-13.91A93,93,0,0,1,61,109.24a53.47,53.47,0,0,1,.58-20c2.9-12.68,8.84-25.78,19.82-33.11a46.89,46.89,0,0,1,9.63-5c.87-.32,3.37-.59,4-1.24,12-12,37.6-11.39,54.72-6.09A57.61,57.61,0,0,1,180.56,67,71,71,0,0,1,191.64,96.2a72.18,72.18,0,0,1,.81,10.79c0,6.53-2.2,12.91-3.22,19.3-1.78,11.09,8.47,17.08,9.78,27.28C199,153.81,199.06,154.05,199.08,154.28Z"/><path class="cls-3" d="M146.1,181.08a86.86,86.86,0,0,1-15.24-1.27c-3.21-.56-7-.25-10.59.05-2,.16-3.89.32-5.77.36a170.33,170.33,0,0,1-18.94-.56c-9.54-.87-31.85-2.9-38.36-16.49-1.66-3.46-1.65-7.84,0-12.65.54-1.54,1.19-3,1.86-4.53a41.16,41.16,0,0,0,2-5.2l.38-1.27c1.12-3.78,2.28-7.68,1.19-10.8a95.57,95.57,0,0,1-4.66-19,56.92,56.92,0,0,1,.61-21.12C61.21,77.35,67,62.17,79.72,53.64A50.24,50.24,0,0,1,90,48.37a14.16,14.16,0,0,1,1.73-.44c.4-.09,1.1-.24,1.47-.36,12.44-12.15,38.26-12.52,57.48-6.59a60.63,60.63,0,0,1,32.42,24.36,74.35,74.35,0,0,1,11.54,30.41,73.36,73.36,0,0,1,.84,11.25,61.33,61.33,0,0,1-1.95,13.31c-.48,2.15-1,4.3-1.31,6.45-.83,5.2,1.58,9.1,4.36,13.61,2.36,3.82,4.79,7.76,5.44,12.82l.09.86c.48,6.27-1.93,12.66-6.13,16.3-6.8,5.88-16.32,7.18-24.72,8.33-1.52.21-3,.41-4.46.64A133.41,133.41,0,0,1,146.1,181.08Zm-19.38-7.6a30,30,0,0,1,5.19.41c9.74,1.72,20.84,1.56,33.92-.51,1.48-.23,3-.44,4.59-.66,7.94-1.08,16.15-2.2,21.59-6.92,2.77-2.39,4.4-6.92,4.07-11.27l-.06-.61c-.48-3.73-2.47-7-4.58-10.39-3-4.83-6.37-10.32-5.18-17.71.36-2.28.86-4.55,1.37-6.82a56.12,56.12,0,0,0,1.81-12,66.66,66.66,0,0,0-.78-10.34,67.59,67.59,0,0,0-10.62-28,54.53,54.53,0,0,0-29.17-21.89c-17.19-5.33-41.15-5.26-51.7,5.34A8.17,8.17,0,0,1,93,53.8a8.44,8.44,0,0,0-.92.22,43.49,43.49,0,0,0-9,4.62C71.94,66.07,66.83,79.75,64.5,89.92A50.83,50.83,0,0,0,64,108.79a89.74,89.74,0,0,0,4.38,17.94c1.75,5,.25,10-1.08,14.5l-.37,1.24a47.72,47.72,0,0,1-2.3,5.95c-.6,1.35-1.19,2.69-1.68,4.08-.8,2.29-1.5,5.55-.28,8.08,5,10.5,25,12.32,33.47,13.09a165.57,165.57,0,0,0,18.28.54c1.75,0,3.56-.19,5.39-.34C122.06,173.67,124.39,173.48,126.72,173.48Z"/><path class="cls-1" d="M180.59,125.2c-3.27,2.46-7.53,4.92-11.72,5.21"/><path class="cls-3" d="M169.08,133.41l-.42-6c2.88-.21,6.38-1.8,10.12-4.62l3.62,4.8C177.66,131.17,173.18,133.12,169.08,133.41Z"/><rect class="cls-3" x="55.45" y="170.83" width="142.62" height="152.51" rx="71.2" ry="71.2"/><path class="cls-1" d="M108.86,141.15v32.28a16.28,16.28,0,1,0,32.56,0V141.15Z"/><path class="cls-3" d="M125.14,191.72a18.3,18.3,0,0,1-18.29-18.29V139.15h36.57v34.28A18.3,18.3,0,0,1,125.14,191.72Zm-14.28-48.57v30.28a14.28,14.28,0,1,0,28.56,0V143.15Z"/><path class="cls-1" d="M171,115.9c-.44,9.53-1.73,19.67-5.11,26.29-7.71,15.12-27.55,25.08-40.18,25.08-11.76,0-31.84-9.88-39.54-24.9C83.87,137.9,81.91,128,81,121.61"/><path class="cls-3" d="M125.7,170.28c-13.53,0-34.2-10.9-42.22-26.53C81,139,79,129.06,78,122l6-.83c1,6.87,2.88,16,4.83,19.82,7.29,14.19,26.7,23.25,36.87,23.25,12.08,0,30.46-9.62,37.5-23.43,2.65-5.18,4.25-13.61,4.79-25.07l6,.28c-.58,12.49-2.35,21.49-5.43,27.52C160.41,159.54,139.81,170.28,125.7,170.28Z"/><rect class="cls-3" x="102.71" y="103.84" width="10.97" height="16.37" rx="5.37" ry="5.37"/><rect class="cls-3" x="139.62" y="103.84" width="10.97" height="16.37" rx="5.37" ry="5.37"/><path class="cls-1" d="M126.65,113.92c0,1.63-.4,3.25.44,4.77a15.23,15.23,0,0,1,1.12,2.06,4.15,4.15,0,0,1-1.49,4.67"/><path class="cls-3" d="M126.72,127.43a2,2,0,0,1-1.19-3.61,2.2,2.2,0,0,0,.8-2.38,6.8,6.8,0,0,0-.57-1.06l-.43-.73a8.11,8.11,0,0,1-.73-4.66c0-.35,0-.71,0-1.07a2,2,0,0,1,4,0c0,.44,0,.88-.05,1.31a4.6,4.6,0,0,0,.25,2.49l.34.58a10.44,10.44,0,0,1,.9,1.76,6.14,6.14,0,0,1-2.17,7A2,2,0,0,1,126.72,127.43Z"/><path class="cls-3" d="M126.65,144.8c-5.09,0-9.84-2.49-13.39-7a2,2,0,0,1,1.58-3.24h23.62a2,2,0,0,1,1.81,1.13,2,2,0,0,1-.23,2.11C136.5,142.31,131.74,144.8,126.65,144.8Zm-6.85-6.24a11.84,11.84,0,0,0,13.7,0Z"/><path class="cls-3" d="M152.14,100.09a1.46,1.46,0,0,1-.53-.1,18.71,18.71,0,0,0-12.22-.15,1.6,1.6,0,0,1-1.14-3,22,22,0,0,1,14.43.13,1.61,1.61,0,0,1-.54,3.12Z"/><path class="cls-3" d="M100.36,100.09A1.61,1.61,0,0,1,99.82,97a22.11,22.11,0,0,1,14.43-.13,1.6,1.6,0,1,1-1.14,3,18.77,18.77,0,0,0-12.22.15A1.46,1.46,0,0,1,100.36,100.09Z"/><path class="cls-1" d="M109.44,62.85s17.21-7.56,37.47,2.16"/><path class="cls-3" d="M145.61,67.72c-18.81-9-34.8-2.19-35-2.12l-2.42-5.5c.76-.34,18.72-8,40,2.2Z"/><path class="cls-3" d="M80.29,133.42l-.38,0a3,3,0,0,1-2.6-3.37c7.61-59.21,23.79-68.16,29.85-69.38,5.87-7.66,17.7-7.32,22.68-6.76C140.41,55,151,62.31,156.25,72c3.57,6.61,5.74,13.47,7.84,20.11,3.9,12.35,7.59,24,19.89,31.78a3,3,0,1,1-3.21,5.09c-14.16-8.94-18.35-22.21-22.41-35.05-2-6.38-4.1-13-7.4-19.07-4.33-8-13.08-14-21.77-15-3.23-.35-14-1-17.77,5.18h0a3,3,0,0,1-2.58,1.43h0c-.16,0-17.47,1.37-25.57,64.32A3,3,0,0,1,80.29,133.42Z"/></g></svg>