<svg id="레이어_1" data-name="레이어 1" xmlns="http://www.w3.org/2000/svg" viewBox="0 0 250 250"><defs><style>.cls-1{fill:#fff;}.cls-2{fill:#86898d;}</style></defs><title>대지 15</title><circle class="cls-1" cx="125" cy="125" r="125"/><path class="cls-2" d="M125,190.26a19.17,19.17,0,0,1-19.14-19.14v-1.83A77.89,77.89,0,0,0,49.94,225a125,125,0,0,0,150.12,0,77.91,77.91,0,0,0-55.92-55.66v1.83A19.17,19.17,0,0,1,125,190.26Z"/><path class="cls-1" d="M125,186.25a15.15,15.15,0,0,0,15.13-15.13v-1.48a44.89,44.89,0,0,1-14.57,2.58,46.19,46.19,0,0,1-15.69-2.8v1.7A15.15,15.15,0,0,0,125,186.25Z"/><path class="cls-2" d="M140.13,169.64v1.48a15.13,15.13,0,0,1-30.26,0v-1.7c-1.36-.5-2.7-1-4-1.66v3.36a19.14,19.14,0,1,0,38.28,0v-3C142.82,168.66,141.48,169.18,140.13,169.64Z"/><path class="cls-1" d="M75.34,157.48a174,174,0,0,0,18.37,2.26A50.81,50.81,0,0,1,82.28,145a41.21,41.21,0,0,1-3.09-9.84,32.44,32.44,0,0,1-4.37-1.05C74.39,142.48,74.47,151.64,75.34,157.48Z"/><path class="cls-2" d="M93.71,159.74a174,174,0,0,1-18.37-2.26c-.87-5.84-1-15-.52-23.35A25.21,25.21,0,0,1,69,131.37c-.65,9.82-.6,21.26.6,28.08a4.54,4.54,0,0,0,1.2,2.54,4.66,4.66,0,0,0,2.5,1.23,172.53,172.53,0,0,0,29.48,2.95A50.7,50.7,0,0,1,93.71,159.74Z"/><path class="cls-1" d="M157.3,159.87a171,171,0,0,0,19.91-2.39c.91-6.15,1-15.78.47-24.34a30,30,0,0,1-5.09,1.66,40.06,40.06,0,0,1-3.09,10A49.06,49.06,0,0,1,157.3,159.87Z"/><path class="cls-2" d="M177.68,133.14c.49,8.56.44,18.19-.47,24.34a171,171,0,0,1-19.91,2.39,55.45,55.45,0,0,1-9.31,6.35,171.84,171.84,0,0,0,31.31-3,4.24,4.24,0,0,0,3.69-3.78c1.27-7.22,1.26-19.67.48-29.85A23.74,23.74,0,0,1,177.68,133.14Z"/><path class="cls-1" d="M111.52,32.54a78,78,0,0,1,14.42-1.31h.14a66.36,66.36,0,0,1,13.37,1.35C130.9,26.31,120.46,27.46,111.52,32.54Z"/><path class="cls-2" d="M111.52,32.54c8.94-5.08,19.38-6.23,27.93,0a61.35,61.35,0,0,1,10.81,3.32,23.6,23.6,0,0,0-6-7.24c-15.34-12.53-35.68-5.21-47.85,8.5-.1.11-.19.24-.29.35A62.31,62.31,0,0,1,111.52,32.54Z"/><path class="cls-1" d="M181.35,82c-1.88-15.59-20-44.7-55.34-44.73C86.59,37.28,72.67,65.37,70.67,82c-.71,5.89.77,15.1,1.52,19.18a16,16,0,0,1,3.79-.28c0-1.58,0-3.06,0-4.37a3,3,0,0,1,.08-.41,2.71,2.71,0,0,1,.13-.63,2.91,2.91,0,0,1,.27-.49,2.67,2.67,0,0,1,.32-.48,3,3,0,0,1,.49-.39,2.24,2.24,0,0,1,.34-.27c13.64-7,23.26-16.68,32.17-32.26a3,3,0,1,1,5.22,3c-8.39,14.68-17.82,24.74-30.08,32.07l15.54.3,0,0a12.65,12.65,0,0,1,10.2.07,1.39,1.39,0,0,1,.19.15l27.85.54a1.56,1.56,0,0,1,.68-.69,12.65,12.65,0,0,1,10.2-.07,1.58,1.58,0,0,1,.89,1l18.61.36c-2.67-8-11.88-22.81-24.6-31.59a3,3,0,0,1,3.41-4.95c14.38,9.92,24.46,26.54,27.17,35.42v0c0,.1.08.22.11.32a3,3,0,0,1,0,.42,2,2,0,0,1,.09.42c0,.77,0,1.64,0,2.55a16.44,16.44,0,0,1,4.46.78C180.44,97.87,182.09,88.1,181.35,82Zm-62.9-18.74a2.6,2.6,0,1,1,4.84,1.91,75,75,0,0,1-19.36,28,2.58,2.58,0,0,1-1.77.7,2.6,2.6,0,0,1-1.78-4.51A69.18,69.18,0,0,0,118.45,63.23Zm21.46,28.54h-.23a2,2,0,0,1-2-1.78c-1.14-10.1-2.65-14.88-9.37-23.29a2,2,0,0,1,3.14-2.51c7.27,9.12,9,14.57,10.22,25.35A2,2,0,0,1,139.91,91.77Zm19.16-.06A2.6,2.6,0,0,1,157.4,95a2.54,2.54,0,0,1-.81.13,2.59,2.59,0,0,1-2.47-1.79c-4.77-14.61-18.64-27.08-18.78-27.21a2.61,2.61,0,1,1,3.47-3.89C139.43,62.79,153.87,75.79,159.07,91.71Z"/><path class="cls-2" d="M72.19,101.15C71.44,97.07,70,87.86,70.67,82c2-16.6,15.92-44.69,55.34-44.73,35.29,0,53.46,29.14,55.34,44.73.74,6.13-.91,15.9-1.62,19.67a15.66,15.66,0,0,1,5.47,3.07c0-.09.09-.15.1-.24.13-.59,3.07-14.54,2-23.22-1.85-15.32-14.54-36.18-37.06-45.35a61.35,61.35,0,0,0-10.81-3.32,66.36,66.36,0,0,0-13.37-1.35h-.14a78,78,0,0,0-14.42,1.31,62.31,62.31,0,0,0-15.37,5C75,47.63,66.32,67.79,64.7,81.25c-.9,7.44,1.13,18.72,1.8,22.18A16,16,0,0,1,72.19,101.15Z"/><path class="cls-1" d="M68.49,109.44a9.14,9.14,0,0,0-2.55,8.88c1.89,6.52,7.48,9.27,12.14,10.47-1-7.1-1.62-15-1.91-21.84A10.13,10.13,0,0,0,68.49,109.44Z"/><path class="cls-2" d="M74.82,134.13a32.44,32.44,0,0,0,4.37,1.05c-.41-2-.78-4.16-1.11-6.39-4.66-1.2-10.25-3.95-12.14-10.47a9.14,9.14,0,0,1,2.55-8.88A10.13,10.13,0,0,1,76.17,107c-.09-2.16-.15-4.2-.19-6.08a16.23,16.23,0,0,0-9.48,2.56A14.9,14.9,0,0,0,64.39,105a15.18,15.18,0,0,0-4.23,15A19.92,19.92,0,0,0,69,131.37,25.21,25.21,0,0,0,74.82,134.13Z"/><path class="cls-1" d="M173.63,128.3c4.24-1.42,8.77-4.25,10.43-10a9.12,9.12,0,0,0-2.56-8.88,9.94,9.94,0,0,0-6.34-2.53C175,113.31,174.57,121.12,173.63,128.3Z"/><path class="cls-2" d="M189.84,120a15.18,15.18,0,0,0-4.23-15c-.13-.12-.28-.22-.41-.33a15.66,15.66,0,0,0-5.47-3.07,16.44,16.44,0,0,0-4.46-.78c0,1.79-.05,3.83-.11,6a9.94,9.94,0,0,1,6.34,2.53,9.12,9.12,0,0,1,2.56,8.88c-1.66,5.73-6.19,8.56-10.43,10-.29,2.25-.64,4.44-1,6.5a30,30,0,0,0,5.09-1.66,23.74,23.74,0,0,0,5.79-3.56A19.51,19.51,0,0,0,189.84,120Z"/><path class="cls-1" d="M145.47,127.18h2.05a11.67,11.67,0,0,0,11.66-11.66v-.8a9.36,9.36,0,0,0-9.35-9.35h-6.67a9.36,9.36,0,0,0-9.35,9.35v.8A11.67,11.67,0,0,0,145.47,127.18Zm-6.51-15a5.35,5.35,0,0,1,5.33-5.33h.42a5.35,5.35,0,0,1,5.33,5.33v4.11a5.35,5.35,0,0,1-5.33,5.33h-.42A5.35,5.35,0,0,1,139,116.3Z"/><path class="cls-1" d="M163.19,114.72v.8a15.69,15.69,0,0,1-15.67,15.67h-2.05a15.64,15.64,0,0,1-15.57-14.72h-3.27a3.31,3.31,0,0,0,.31,1.29l.35.66a11.91,11.91,0,0,1,.88,1.88,6.89,6.89,0,0,1-2.12,7.35,2,2,0,0,1-1.27.46,2,2,0,0,1-1.28-3.55,2.88,2.88,0,0,0,.86-3,7.21,7.21,0,0,0-.59-1.22l-.42-.8a7.42,7.42,0,0,1-.72-3.08h-1.8c-.5,8.32-7.37,14.72-16.12,14.72h-1c-9.09,0-16.21-6.88-16.21-15.67v-.8a13.1,13.1,0,0,1,.45-3.27l-5.71-2.4c.64,12.77,2.27,27.22,5.35,33.22,7.46,14.54,22.35,23.93,37.93,23.93,15.23,0,31.46-10.14,38.58-24.11,3-5.9,4.47-19.82,5-33.49l-6.35,2.87A12.94,12.94,0,0,1,163.19,114.72Zm-37.93,32H125c-5.69,0-10.84-2-14.16-5.47a2,2,0,0,1,2.91-2.76c2.55,2.69,6.88,4.35,11.44,4.22s8.61-1.61,11-4.19a2,2,0,0,1,3,2.71C136,144.64,130.94,146.64,125.26,146.7Z"/><path class="cls-1" d="M103.75,127.18h1c6.85,0,12.21-5.13,12.21-11.66v-.8a9.36,9.36,0,0,0-9.35-9.35h-6.68a9.37,9.37,0,0,0-9.35,9.35v.8C91.54,122.05,96.91,127.18,103.75,127.18ZM100,112.4a5.54,5.54,0,0,1,11.08,0v3.69a5.54,5.54,0,1,1-11.08,0Z"/><path class="cls-1" d="M150.45,97.89a1.52,1.52,0,0,1,0,1.11,1.61,1.61,0,0,1-2.09.86,9.58,9.58,0,0,0-7.57,0,1.61,1.61,0,0,1-2.15-.75,1.58,1.58,0,0,1,.07-1.45l-27.85-.54a1.57,1.57,0,0,1,.55,2,1.59,1.59,0,0,1-1.44.91,1.62,1.62,0,0,1-.7-.16,9.58,9.58,0,0,0-7.57,0A1.61,1.61,0,0,1,99.58,99a1.59,1.59,0,0,1,.83-2.08l-15.54-.3c-1,.56-1.93,1.1-2.92,1.63,0,1.34,0,2.72.07,4.18l8.76,3.67a13.28,13.28,0,0,1,10.11-4.74h6.68a13.36,13.36,0,0,1,13.13,11.1H123a2,2,0,0,1,3.51,0H130a13.35,13.35,0,0,1,13.13-11.1h6.67A13.29,13.29,0,0,1,160,106.12l9.27-4.19c0-1.05,0-2.09,0-3.11,0-.18-.14-.39-.2-.57Z"/><path class="cls-2" d="M157.3,159.87a49.06,49.06,0,0,0,12.2-15.05,40.06,40.06,0,0,0,3.09-10c.4-2.06.75-4.25,1-6.5.94-7.18,1.35-15,1.53-21.39.06-2.22.09-4.26.11-6,0-.91,0-1.78,0-2.55a2,2,0,0,0-.09-.42,3,3,0,0,1-2.07,3.31,3.17,3.17,0,0,1-.85.12,3,3,0,0,1-2.88-2.16,3.42,3.42,0,0,0-.13-.34c0,1,0,2.06,0,3.11l.92-.42,2.48,5.48-3.55,1.61c-.48,13.67-1.94,27.59-5,33.49-7.12,14-23.35,24.11-38.58,24.11-15.58,0-30.47-9.39-37.93-23.93-3.08-6-4.71-20.45-5.35-33.22l-4.85-2,2.33-5.54,2.26,1C82,101,82,99.59,82,98.25c-.55.31-1.07.63-1.64.93a3.07,3.07,0,0,1-1.37.33,3,3,0,0,1-2.68-1.63A3,3,0,0,1,76,96.09a3,3,0,0,0-.08.41c0,1.31,0,2.79,0,4.37,0,1.88.1,3.92.19,6.08.29,6.84.88,14.74,1.91,21.84.33,2.23.7,4.38,1.11,6.39A41.21,41.21,0,0,0,82.28,145a51.07,51.07,0,0,0,20.47,21.15c1,.57,2.06,1.1,3.11,1.59,1.31.61,2.65,1.16,4,1.66a46.19,46.19,0,0,0,15.69,2.8,44.89,44.89,0,0,0,14.57-2.58c1.35-.46,2.69-1,4-1.56s2.59-1.18,3.85-1.86A55.45,55.45,0,0,0,157.3,159.87Z"/><path class="cls-2" d="M76.14,95.46a2.62,2.62,0,0,1,.27-.49A2.91,2.91,0,0,0,76.14,95.46Z"/><path class="cls-2" d="M175,97.13v0Z"/><path class="cls-2" d="M77.22,94.1a3,3,0,0,0-.49.39A3.11,3.11,0,0,1,77.22,94.1Z"/><path class="cls-2" d="M124.71,111.38a2,2,0,0,0-1.76,1.08h3.51A2,2,0,0,0,124.71,111.38Z"/><path class="cls-2" d="M122.63,116.47a7.42,7.42,0,0,0,.72,3.08l.42.8a7.21,7.21,0,0,1,.59,1.22,2.88,2.88,0,0,1-.86,3,2,2,0,0,0,1.28,3.55,2,2,0,0,0,1.27-.46,6.89,6.89,0,0,0,2.12-7.35,11.91,11.91,0,0,0-.88-1.88l-.35-.66a3.31,3.31,0,0,1-.31-1.29Z"/><path class="cls-2" d="M105.5,121.63a5.55,5.55,0,0,0,5.54-5.54V112.4a5.54,5.54,0,0,0-11.08,0v3.69A5.55,5.55,0,0,0,105.5,121.63Z"/><rect class="cls-2" x="138.96" y="106.86" width="11.08" height="14.77" rx="5.33" ry="5.33"/><path class="cls-2" d="M99.58,99a1.61,1.61,0,0,0,2.09.86,9.58,9.58,0,0,1,7.57,0,1.62,1.62,0,0,0,.7.16,1.59,1.59,0,0,0,1.44-.91,1.57,1.57,0,0,0-.55-2,1.39,1.39,0,0,0-.19-.15,12.65,12.65,0,0,0-10.2-.07l0,0A1.59,1.59,0,0,0,99.58,99Z"/><path class="cls-2" d="M138.61,99.11a1.61,1.61,0,0,0,2.15.75,9.58,9.58,0,0,1,7.57,0,1.61,1.61,0,0,0,2.09-.86,1.52,1.52,0,0,0,0-1.11,1.58,1.58,0,0,0-.89-1,12.65,12.65,0,0,0-10.2.07,1.56,1.56,0,0,0-.68.69A1.58,1.58,0,0,0,138.61,99.11Z"/><path class="cls-2" d="M120.93,115.52c0,.33-.08.63-.1,1h9.07c0-.32-.1-.63-.1-1v-.8a13,13,0,0,1,.23-2.26H120.7a13,13,0,0,1,.23,2.26Z"/><path class="cls-2" d="M89.16,111.94,88,111.45a13.1,13.1,0,0,0-.45,3.27v.8c0,8.79,7.12,15.67,16.21,15.67h1c8.75,0,15.62-6.4,16.12-14.72,0-.32.1-.62.1-1v-.8a13,13,0,0,0-.23-2.26,13.36,13.36,0,0,0-13.13-11.1h-6.68a13.28,13.28,0,0,0-10.11,4.74l.7.3Zm2.38,2.78a9.37,9.37,0,0,1,9.35-9.35h6.68a9.36,9.36,0,0,1,9.35,9.35v.8c0,6.53-5.36,11.66-12.21,11.66h-1c-6.84,0-12.21-5.13-12.21-11.66Z"/><path class="cls-2" d="M129.8,115.52c0,.32.08.63.1,1a15.64,15.64,0,0,0,15.57,14.72h2.05a15.69,15.69,0,0,0,15.67-15.67v-.8a12.94,12.94,0,0,0-.45-3.25l-1.22.55L159,106.54l.93-.42a13.29,13.29,0,0,0-10.14-4.76h-6.67A13.35,13.35,0,0,0,130,112.46a13,13,0,0,0-.23,2.26Zm4-.8a9.36,9.36,0,0,1,9.35-9.35h6.67a9.36,9.36,0,0,1,9.35,9.35v.8a11.67,11.67,0,0,1-11.66,11.66h-2.05a11.67,11.67,0,0,1-11.66-11.66Z"/><path class="cls-2" d="M139,138.38a2,2,0,0,0-2.83.12c-2.37,2.58-6.47,4.15-11,4.19s-8.89-1.53-11.44-4.22a2,2,0,0,0-2.91,2.76c3.32,3.48,8.47,5.47,14.16,5.47h.23c5.68-.06,10.74-2.06,13.89-5.49A2,2,0,0,0,139,138.38Z"/><polygon class="cls-2" points="89.16 111.94 91.48 106.39 90.78 106.1 82.02 102.43 79.76 101.48 77.43 107.02 82.28 109.05 87.99 111.45 89.16 111.94"/><polygon class="cls-2" points="159.97 106.12 159.04 106.54 161.52 112.03 162.74 111.47 169.09 108.6 172.64 106.99 170.16 101.51 169.24 101.93 159.97 106.12"/><path class="cls-2" d="M115,64.55a3,3,0,1,0-5.22-3C100.82,77.15,91.2,86.8,77.56,93.83a2.24,2.24,0,0,0-.34.27,3.11,3.11,0,0,0-.49.39,2.67,2.67,0,0,0-.32.48,2.62,2.62,0,0,0-.27.49,2.71,2.71,0,0,0-.13.63,3,3,0,0,0,.25,1.79,3,3,0,0,0,2.68,1.63,3.07,3.07,0,0,0,1.37-.33c.57-.3,1.09-.62,1.64-.93,1-.53,2-1.07,2.92-1.63C97.13,89.29,106.56,79.23,115,64.55Z"/><path class="cls-2" d="M175.05,97.15v0c-2.71-8.88-12.79-25.5-27.17-35.42a3,3,0,0,0-3.41,4.95c12.72,8.78,21.93,23.62,24.6,31.59.06.18.15.39.2.57a3.42,3.42,0,0,1,.13.34,3,3,0,0,0,2.88,2.16,3.17,3.17,0,0,0,.85-.12,3.61,3.61,0,0,0,2-3.73C175.13,97.37,175.08,97.25,175.05,97.15Z"/><path class="cls-2" d="M100.25,93a2.62,2.62,0,0,0,1.91.83,2.58,2.58,0,0,0,1.77-.7,75,75,0,0,0,19.36-28,2.6,2.6,0,1,0-4.84-1.91,69.18,69.18,0,0,1-18.07,26.11A2.61,2.61,0,0,0,100.25,93Z"/><path class="cls-2" d="M131.46,64.2a2,2,0,0,0-3.14,2.51C135,75.12,136.55,79.9,137.69,90a2,2,0,0,0,2,1.78h.23a2,2,0,0,0,1.77-2.22C140.46,78.77,138.73,73.32,131.46,64.2Z"/><path class="cls-2" d="M138.81,62.24a2.61,2.61,0,1,0-3.47,3.89c.14.13,14,12.6,18.78,27.21a2.59,2.59,0,0,0,2.47,1.79,2.54,2.54,0,0,0,.81-.13,2.6,2.6,0,0,0,1.67-3.29C153.87,75.79,139.43,62.79,138.81,62.24Z"/></svg>