<svg id="레이어_1" data-name="레이어 1" xmlns="http://www.w3.org/2000/svg" xmlns:xlink="http://www.w3.org/1999/xlink" viewBox="0 0 250 250"><defs><style>.cls-1{fill:#fff;}.cls-2{clip-path:url(#clip-path);}.cls-3{fill:#86898d;}</style><clipPath id="clip-path"><circle class="cls-1" cx="125" cy="125" r="125"/></clipPath></defs><title>대지 16</title><circle class="cls-1" cx="125" cy="125" r="125"/><g class="cls-2"><polygon class="cls-3" points="67.72 100.55 66.7 89.39 82.56 76.51 91.26 91.79 80.75 102.27 67.72 100.55"/><path class="cls-3" d="M80.75,105.28a2.69,2.69,0,0,1-.4,0l-13-1.72a3,3,0,0,1-2.61-2.71l-1-11.16a3,3,0,0,1,1.1-2.6L80.66,74.18a3,3,0,0,1,2.45-.62A3,3,0,0,1,85.17,75l8.7,15.28a3,3,0,0,1-.49,3.62L82.87,104.4A3,3,0,0,1,80.75,105.28ZM70.49,97.89l9.18,1.21,7.84-7.82L81.7,81.08,69.84,90.71Z"/><polygon class="cls-3" points="182.8 100.55 183.81 89.39 167.96 76.51 159.26 91.79 169.77 102.27 182.8 100.55"/><path class="cls-3" d="M169.77,105.28a3,3,0,0,1-2.12-.88L157.13,93.92a3,3,0,0,1-.49-3.62L165.35,75a3,3,0,0,1,2.06-1.46,2.94,2.94,0,0,1,2.44.62L185.7,87.06a3,3,0,0,1,1.1,2.6l-1,11.16a3,3,0,0,1-2.6,2.71l-13,1.72A2.56,2.56,0,0,1,169.77,105.28Zm13-4.73h0ZM163,91.28l7.83,7.82L180,97.89l.65-7.18-11.85-9.63Z"/><path class="cls-1" d="M76.27,91.54l-11.9.72c-2-12.61-2.23-26.37,4.69-37.72a59.51,59.51,0,0,1,7.29-9.3c12.39-13.42,30.27-19.1,48.2-19.1h-.16c18.89,0,37.46,8,49.86,22.26a60.66,60.66,0,0,1,6.63,9.14A43.17,43.17,0,0,1,184.63,66c2.59,8,3,17.36,2,25.83l-12.3-.1"/><path class="cls-3" d="M64.36,95.27a3,3,0,0,1-3-2.52C58.66,75.81,60.28,63.17,66.49,53a64,64,0,0,1,7.64-9.77c11.91-12.9,29.74-20,50.23-20.06a.2.2,0,0,1,.11,0h.12c19.92.05,39.32,8.75,51.93,23.29a62.44,62.44,0,0,1,7,9.6,46.06,46.06,0,0,1,4,9c2.52,7.81,3.28,17.43,2.14,27.11a3,3,0,0,1-3,2.65h0l-12.3-.09a3,3,0,0,1-3-3,2.88,2.88,0,0,1,3-3l9.56.08a57.83,57.83,0,0,0-2.15-21.88,40.53,40.53,0,0,0-3.49-7.83A56,56,0,0,0,172,50.37c-11.5-13.27-29.26-21.2-47.5-21.22-18.84,0-35.14,6.45-45.92,18.13a57.78,57.78,0,0,0-6.92,8.82c-5.11,8.39-6.62,18.92-4.7,33l9.15-.56a3,3,0,0,1,.37,6l-11.9.73Z"/><path class="cls-1" d="M75.43,100.92c-3-1.21-8.67-1.68-11.85,2.54-2.4,3.18-3.3,8.62-2.43,13.27,1.87,10,11.81,14.34,17.93,15"/><path class="cls-3" d="M78.75,134.73c-8.5-.94-18.56-6.8-20.55-17.44-1.05-5.6.15-11.89,3-15.64,3.84-5.11,10.66-5.41,15.37-3.52l-2.24,5.58c-1.53-.61-6-1.52-8.33,1.55-1.81,2.41-2.6,7-1.87,10.92,1.64,8.79,10.72,12.07,15.3,12.57Z"/><path class="cls-1" d="M175.34,100.92c3-1.21,8.68-1.68,11.85,2.54,2.4,3.18,3.3,8.62,2.43,13.27-1.87,10-11.81,14.34-17.93,15"/><path class="cls-3" d="M172,134.73l-.66-6c4.58-.5,13.66-3.78,15.3-12.57.74-3.91,0-8.51-1.87-10.92-2.32-3.08-6.8-2.16-8.33-1.55l-2.23-5.58c4.71-1.88,11.52-1.58,15.36,3.52,2.83,3.75,4,10,3,15.64C190.59,127.93,180.53,133.79,172,134.73Z"/><rect class="cls-3" x="27.25" y="173.92" width="195.5" height="209.05" rx="82.31" ry="82.31"/><path class="cls-1" d="M105.73,136.47v38.87a19.61,19.61,0,0,0,39.21,0V136.47Z"/><path class="cls-3" d="M125.33,197a21.63,21.63,0,0,1-21.6-21.61V134.47h43.21v40.87A21.63,21.63,0,0,1,125.33,197Zm-17.59-58.47v36.86a17.6,17.6,0,1,0,35.19,0V138.48Z"/><path class="cls-1" d="M174.34,91.69c0,13,.55,27.13-.92,41-1.38,13-12.09,24.67-23,30.77a56.12,56.12,0,0,1-25.63,7.41h1.09a56.12,56.12,0,0,1-25.63-7.41c-10.88-6.1-21.59-17.76-23-30.77-1.47-13.86-1-28.12-1-41.14,0,0,11.39-8.1,46.93-8.1S174.34,91.69,174.34,91.69Z"/><path class="cls-3" d="M125.91,173.87h-1.09a3.08,3.08,0,0,1-.68-.08,59.72,59.72,0,0,1-25.33-7.72C88.52,160.3,75.93,148.18,74.32,133c-1.22-11.52-1.15-23.11-1.09-34.31q0-3.63,0-7.15a3,3,0,0,1,1.27-2.45c.49-.36,12.58-8.65,48.67-8.65,35.87,0,51.88,8.24,52.54,8.59a3,3,0,0,1,1.61,2.66q0,4.11.05,8.35c.09,10.74.18,21.85-1,33-1.6,15.18-14.2,27.31-24.5,33.07a59.64,59.64,0,0,1-25.31,7.72A3.25,3.25,0,0,1,125.91,173.87ZM79.27,93.3c0,1.79,0,3.6,0,5.42-.07,11-.13,22.46,1,33.64,1.28,12.07,11.69,23,21.45,28.47a53.54,53.54,0,0,0,23.61,7,53.54,53.54,0,0,0,23.62-7c9.75-5.47,20.17-16.39,21.45-28.47,1.14-10.76,1-21.7.95-32.27,0-2.18,0-4.33,0-6.45-4.75-1.94-20.17-7.19-48.14-7.19C95.7,86.45,83.06,91.42,79.27,93.3Z"/><path class="cls-3" d="M125.27,145.41a45,45,0,0,1-15.94-2.65,2.41,2.41,0,0,1,1.76-4.48c7.82,3.09,20.54,3.09,28.36,0a2.41,2.41,0,1,1,1.76,4.48A45,45,0,0,1,125.27,145.41Z"/><path class="cls-3" d="M125.27,153.67a14.53,14.53,0,0,1-4.63-.69,2,2,0,0,1-1.24-2.55,2,2,0,0,1,2.55-1.24,12.28,12.28,0,0,0,6.64,0A2,2,0,1,1,129.9,153,14.53,14.53,0,0,1,125.27,153.67Z"/><rect class="cls-3" x="98.77" y="102.27" width="10.23" height="13.64" rx="5.11" ry="5.11"/><rect class="cls-3" x="141.78" y="102.27" width="10.23" height="13.64" rx="4.92" ry="4.92"/><path class="cls-3" d="M109.6,99.11a1.59,1.59,0,0,1-.43-.06c-3.42-1-8.58-1.3-11.42-.09A1.6,1.6,0,1,1,96.49,96c3.73-1.59,9.64-1.14,13.54-.05a1.61,1.61,0,0,1-.43,3.15Z"/><path class="cls-3" d="M140.64,99.23a1.6,1.6,0,0,1-.46-3.14c3.89-1.17,9.78-1.74,13.54-.22a1.61,1.61,0,1,1-1.2,3c-2.88-1.16-8-.7-11.41.31A1.53,1.53,0,0,1,140.64,99.23Z"/><path class="cls-1" d="M124.84,130.42c-2-1.67-3-2.93-2.77-5.76.18-2.24,1.07-3.3,2.12-6.08"/><path class="cls-3" d="M124.84,132.43a2,2,0,0,1-1.28-.46c-2.42-2-3.77-3.86-3.49-7.46A12.15,12.15,0,0,1,121.4,120c.28-.61.59-1.3.91-2.17a2,2,0,0,1,2.59-1.16,2,2,0,0,1,1.16,2.59c-.36,1-.7,1.72-1,2.39a8.91,8.91,0,0,0-1,3.14c-.15,1.92.33,2.63,2,4a2,2,0,0,1-1.27,3.55Z"/><path class="cls-3" d="M131.7,130.21a1.06,1.06,0,0,1-.34-.06l-1.76-.62a1,1,0,0,1-.6-1.29,1,1,0,0,1,1.29-.6l1.75.63a1,1,0,0,1-.34,1.94Z"/><path class="cls-3" d="M147.27,87.24a2.4,2.4,0,0,1-1.73-.73c-6.94-7.14-10-17.62-8.44-28.74a2.44,2.44,0,0,1,2.72-2.05,2.41,2.41,0,0,1,2,2.72c-1.34,9.5,1.32,18.74,7.13,24.72a2.4,2.4,0,0,1-.05,3.4A2.35,2.35,0,0,1,147.27,87.24Z"/><path class="cls-3" d="M117.71,85.71a2.38,2.38,0,0,1-2-1c-5.74-8.15-7.13-19-3.83-29.72a2.4,2.4,0,1,1,4.59,1.42c-2.81,9.16-1.63,18.71,3.17,25.53a2.4,2.4,0,0,1-.58,3.35A2.38,2.38,0,0,1,117.71,85.71Z"/><path class="cls-3" d="M104.92,86.53a2.4,2.4,0,0,1-2-1c-5.15-7.32-6.4-17-3.44-26.66a2.4,2.4,0,0,1,4.59,1.41c-2.48,8.08-1.43,16.48,2.78,22.47a2.4,2.4,0,0,1-2,3.79Z"/><path class="cls-3" d="M84.37,90.29a2,2,0,0,1-1.64-.85C78.62,83.6,77.62,75.85,80,68.17a2,2,0,0,1,3.83,1.17c-2,6.4-1.14,13,2.2,17.79a2,2,0,0,1-.49,2.79A2,2,0,0,1,84.37,90.29Z"/><path class="cls-3" d="M132,85.23a2,2,0,0,1-.79-.16c-7.42-3.19-12.47-13-11.26-21.87a2,2,0,0,1,2.26-1.71,2,2,0,0,1,1.71,2.26c-1,7.08,3.09,15.16,8.87,17.63a2,2,0,0,1,1,2.64A2,2,0,0,1,132,85.23Z"/><path class="cls-3" d="M161.55,90.08a2.39,2.39,0,0,1-1.55-.56c-4.81-4.06-13.9-14.32-13.9-24.18a2.41,2.41,0,0,1,4.81,0c0,7.5,7.29,16.37,12.19,20.5a2.4,2.4,0,0,1-1.55,4.24Z"/></g></svg>