<svg id="레이어_1" data-name="레이어 1" xmlns="http://www.w3.org/2000/svg" xmlns:xlink="http://www.w3.org/1999/xlink" viewBox="0 0 250 250"><defs><style>.cls-1{fill:#fff;}.cls-2{clip-path:url(#clip-path);}.cls-3{fill:#86898d;}.cls-4{fill:none;stroke:#86898d;stroke-linecap:round;stroke-miterlimit:10;stroke-width:1.5px;}</style><clipPath id="clip-path"><circle class="cls-1" cx="125" cy="125" r="125"/></clipPath></defs><title>대지 14</title><circle class="cls-1" cx="125" cy="125" r="125"/><g class="cls-2"><path class="cls-1" d="M67.36,115.22c-6.64-13-6.9-30-4.34-44.43,2.73-15.37,9.52-28.57,22.37-34.12.68-.29.15.23.68-.29,13.32-13.08,32.69-16.79,50.67-14,22.53,3.54,42.4,16.76,50.84,38.43,4.21,10.79,5.5,25.85,3.42,37.08-1.52,8.23-7.12,12.43-11.62,19.55"/><path class="cls-3" d="M179.38,120.49a3,3,0,0,1-1.6-.47,3,3,0,0,1-.93-4.14,73.48,73.48,0,0,1,4.64-6.39c3-3.88,5.66-7.23,6.56-12.1,2-10.81.65-25.39-3.27-35.45-7.52-19.3-25.65-33-48.5-36.55-19-3-36.55,1.79-48.11,13.13l-1,1-.89,0C73.12,45.45,68,60.05,66,71.31c-2.89,16.3-1.41,31.8,4.06,42.54a3,3,0,1,1-5.36,2.73c-8.29-16.27-6.45-36-4.62-46.32C63.31,51.9,71.66,39.33,84.2,33.91l.17-.07c13.06-12.44,32.23-17.63,52.84-14.4,25,3.93,44.87,19,53.18,40.32,4.35,11.17,5.79,26.73,3.57,38.72-1.17,6.33-4.51,10.59-7.74,14.71a70.57,70.57,0,0,0-4.29,5.9A3,3,0,0,1,179.38,120.49ZM83.27,38.26h0Zm4.51-3.9.52.6A3.35,3.35,0,0,0,87.78,34.36Z"/><path class="cls-3" d="M150,386.61H100A72.79,72.79,0,0,1,27.4,314V253.61c0-44.33,35.85-76.25,80.6-80.6h34c45.86,3.34,80.6,36.27,80.6,80.6V314A72.79,72.79,0,0,1,150,386.61Z"/><path class="cls-1" d="M68.67,93.73a10.67,10.67,0,0,0-11,3.22A14.72,14.72,0,0,0,54.6,109.8c2.36,9.7,10.31,13.87,18.05,14.52"/><path class="cls-3" d="M72.65,127.33H72.4c-10.63-.9-18.38-7.18-20.73-16.81a17.83,17.83,0,0,1,3.76-15.57,13.72,13.72,0,0,1,14.12-4.08,3,3,0,0,1-1.76,5.75A7.72,7.72,0,0,0,59.9,99a11.75,11.75,0,0,0-2.38,10.13C60,119.17,69.1,121,72.91,121.33a3,3,0,0,1-.26,6Z"/><path class="cls-1" d="M180.78,93.73a10.68,10.68,0,0,1,11,3.22,14.72,14.72,0,0,1,3.07,12.85c-2.36,9.7-10.31,13.87-18,14.52"/><path class="cls-3" d="M176.79,127.33a3,3,0,0,1-.25-6c3.81-.32,12.93-2.16,15.39-12.24A11.79,11.79,0,0,0,189.55,99a7.69,7.69,0,0,0-7.89-2.35,3,3,0,0,1-1.76-5.75A13.72,13.72,0,0,1,194,94.94a17.86,17.86,0,0,1,3.75,15.57c-2.34,9.63-10.09,15.91-20.72,16.81Z"/><path class="cls-1" d="M107.46,136.26V171a17.54,17.54,0,1,0,35.08,0V136.26Z"/><path class="cls-1" d="M125,190.58A19.57,19.57,0,0,1,105.45,171V134.25h39.09V171A19.56,19.56,0,0,1,125,190.58Zm-15.54-52.32V171a15.54,15.54,0,0,0,31.07,0V138.26Z"/><path class="cls-1" d="M107.46,136.26V171a17.54,17.54,0,1,0,35.08,0V136.26Z"/><path class="cls-3" d="M125,190.58A19.57,19.57,0,0,1,105.45,171V134.25h39.09V171A19.56,19.56,0,0,1,125,190.58Zm-15.54-52.32V171a15.54,15.54,0,0,0,31.07,0V138.26Z"/><path class="cls-4" d="M107.46,136.26V171a17.54,17.54,0,1,0,35.08,0V136.26Z"/><path class="cls-4" d="M125,190.58A19.57,19.57,0,0,1,105.45,171V134.25h39.09V171A19.56,19.56,0,0,1,125,190.58Zm-15.54-52.32V171a15.54,15.54,0,0,0,31.07,0V138.26Z"/><path class="cls-1" d="M181.52,104.51c-2.86,33.73-26.63,59.89-55.7,59.89C96.43,164.4,73.45,139,70.24,106"/><path class="cls-3" d="M125.82,167.41c-30.49,0-55.13-25.7-58.57-61.11A3,3,0,0,1,70,103a3,3,0,0,1,3.28,2.7c3.14,32.26,25.26,55.67,52.59,55.67s50-24.56,52.71-57.14a3,3,0,0,1,6,.51C181.5,140.48,156.26,167.41,125.82,167.41Z"/><rect class="cls-3" x="99.51" y="94.91" width="11.26" height="15.65" rx="5.63" ry="5.63"/><rect class="cls-3" x="143.01" y="94.91" width="11.26" height="15.65" rx="5.63" ry="5.63"/><path class="cls-1" d="M127.79,119.73a4.62,4.62,0,0,0,1.89-5.46c-.49-1.24-1.68-2.24-2-3.53a5,5,0,0,1-.32-2.28"/><path class="cls-3" d="M127.79,121.73a2,2,0,0,1-1.13-3.66,2.65,2.65,0,0,0,1.16-3,6.53,6.53,0,0,0-.73-1.17,8.16,8.16,0,0,1-1.38-2.59l-.12-.45a6.06,6.06,0,0,1-.26-2.45,2,2,0,0,1,4,.19,2.32,2.32,0,0,0,.11,1.14l.14.53a5,5,0,0,0,.78,1.3,9.6,9.6,0,0,1,1.18,2,6.56,6.56,0,0,1-2.62,7.85A2,2,0,0,1,127.79,121.73Z"/><path class="cls-3" d="M126.9,140a25.21,25.21,0,0,1-16.4-5.82,3,3,0,0,1,3.92-4.56,19.8,19.8,0,0,0,25,0,3,3,0,1,1,3.91,4.56A25.15,25.15,0,0,1,126.9,140Z"/><path class="cls-3" d="M153.36,87.9a1.84,1.84,0,0,1-.69-.13,17.64,17.64,0,0,0-8.26-.43,2,2,0,0,1-1-3.9,21.68,21.68,0,0,1,10.61.57,2,2,0,0,1-.69,3.89Z"/><path class="cls-3" d="M100.83,87.9a2,2,0,0,1-.69-3.89,21.68,21.68,0,0,1,10.61-.57,2,2,0,0,1-1,3.9,17.81,17.81,0,0,0-8.27.43A1.86,1.86,0,0,1,100.83,87.9Z"/><path class="cls-3" d="M121.47,65.59a3,3,0,0,1-.74-5.92,23.45,23.45,0,0,0,14.24-10,3,3,0,1,1,5.09,3.2A29.44,29.44,0,0,1,122.22,65.5,3.2,3.2,0,0,1,121.47,65.59Z"/><path class="cls-3" d="M139.33,66.58c-.28,0-.55,0-.83,0a3,3,0,0,1,.11-6l.7,0a18.71,18.71,0,0,0,11.84-4.41,3,3,0,1,1,3.91,4.57A24.54,24.54,0,0,1,139.33,66.58Z"/><path class="cls-3" d="M106,66a3,3,0,0,1-.88-5.88A15.9,15.9,0,0,0,115.48,50a3,3,0,0,1,5.75,1.79,22.12,22.12,0,0,1-14.39,14A3,3,0,0,1,106,66Z"/><path class="cls-3" d="M181.52,107.51h0a3,3,0,0,1-3-3.05c.2-13.11-9.08-29.63-21.12-37.62a3,3,0,0,1,3.33-5c13.8,9.16,24,27.53,23.8,42.72A3,3,0,0,1,181.52,107.51Z"/><path class="cls-3" d="M70.24,109a3,3,0,0,1-3-3c0-16.93,15-40.05,26.76-46.4a3,3,0,0,1,2.85,5.29C86.76,70.33,73.25,91.65,73.25,106A3,3,0,0,1,70.24,109Z"/><path class="cls-3" d="M109.61,117.1H99.41A11.73,11.73,0,0,1,87.7,105.39V98a8,8,0,0,1,8-8h18.13a8,8,0,0,1,8,8v6.9A12.27,12.27,0,0,1,109.61,117.1ZM95.71,93.94a4,4,0,0,0-4,4v7.44a7.71,7.71,0,0,0,7.71,7.7h10.2a8.25,8.25,0,0,0,8.24-8.24V98a4,4,0,0,0-4-4Z"/><path class="cls-3" d="M153.2,117.1H143a11.73,11.73,0,0,1-11.71-11.71V98a8,8,0,0,1,8-8h18.12a8,8,0,0,1,8,8v6.9A12.26,12.26,0,0,1,153.2,117.1ZM139.3,93.94a4,4,0,0,0-4,4v7.44a7.7,7.7,0,0,0,7.7,7.7H153.2a8.25,8.25,0,0,0,8.23-8.24V98a4,4,0,0,0-4-4Z"/><rect class="cls-3" x="119.85" y="100.79" width="12.56" height="4.01"/><rect class="cls-3" x="163.11" y="95.47" width="17.82" height="5.21" transform="translate(-19.97 49.6) rotate(-15.52)"/><rect class="cls-3" x="78.13" y="89.17" width="5.21" height="17.82" transform="translate(-35.35 149.68) rotate(-74.51)"/></g></svg>