<svg id="레이어_1" data-name="레이어 1" xmlns="http://www.w3.org/2000/svg" xmlns:xlink="http://www.w3.org/1999/xlink" viewBox="0 0 250 250"><defs><style>.cls-1{fill:#fff;}.cls-2{clip-path:url(#clip-path);}.cls-3{fill:#86898d;}.cls-4{fill:none;stroke:#86898d;stroke-linecap:round;stroke-miterlimit:10;stroke-width:1.5px;}</style><clipPath id="clip-path"><circle class="cls-1" cx="125" cy="125" r="125"/></clipPath></defs><title>대지 10</title><circle class="cls-1" cx="125" cy="125" r="125"/><g class="cls-2"><path class="cls-3" d="M147.79,362.64H102.21a66.32,66.32,0,0,1-66.12-66.12v-55c0-40.38,32.66-69.46,73.42-73.41h31c41.77,3,73.42,33,73.42,73.41v55A66.32,66.32,0,0,1,147.79,362.64Z"/><path class="cls-1" d="M182.43,98.05s4.24-15.5,3.2-24.2c-2-17.06-24.35-49-62.5-49h.15c-43.14,0-60.71,33.32-62.74,50.7-1,8.7,3.44,22.46,3.44,22.46"/><path class="cls-3" d="M182.43,101.05a3.11,3.11,0,0,1-.79-.1,3,3,0,0,1-2.11-3.69c.05-.15,4.07-15,3.11-23.05-2-16.62-23.54-46.27-59.44-46.31-44.12,0-58.21,35.58-59.67,48-.94,7.94,3.27,21,3.31,21.18A3,3,0,1,1,61.12,99c-.19-.59-4.65-14.49-3.57-23.74C60,54.64,79.9,22,123.13,21.88h.15C162.69,22,186.41,55,188.61,73.49c1.1,9.18-3.1,24.69-3.28,25.35A3,3,0,0,1,182.43,101.05Z"/><path class="cls-1" d="M74.92,97.09a13.39,13.39,0,0,0-12.27,3,12.23,12.23,0,0,0-3.43,12.05c2.64,9.09,11.51,13,20.15,13.62"/><path class="cls-3" d="M79.15,128.76C67.49,127.94,59,122,56.33,113A15.29,15.29,0,0,1,60.6,97.91a16.32,16.32,0,0,1,15.07-3.73L74.18,100a10.36,10.36,0,0,0-9.48,2.3,9.27,9.27,0,0,0-2.59,9c2.73,9.42,13.13,11.15,17.47,11.46Z"/><path class="cls-1" d="M171,97.09a13.39,13.39,0,0,1,12.27,3,12.23,12.23,0,0,1,3.43,12.05c-2.64,9.09-11.51,13-20.15,13.62"/><path class="cls-3" d="M166.72,128.76l-.42-6c4.34-.31,14.74-2,17.47-11.46a9.22,9.22,0,0,0-2.59-9,10.37,10.37,0,0,0-9.47-2.31l-1.5-5.82a16.31,16.31,0,0,1,15.07,3.73A15.27,15.27,0,0,1,189.55,113C186.92,122,178.39,127.94,166.72,128.76Z"/><path class="cls-1" d="M105.58,139.36v34a17.15,17.15,0,1,0,34.29,0v-34Z"/><path class="cls-1" d="M122.73,192.51a19.17,19.17,0,0,1-19.15-19.15v-36h38.3v36A19.17,19.17,0,0,1,122.73,192.51Zm-15.15-51.14v32a15.15,15.15,0,0,0,30.29,0v-32Z"/><path class="cls-1" d="M105.58,139.36v34a17.15,17.15,0,1,0,34.29,0v-34Z"/><path class="cls-3" d="M122.73,192.51a19.17,19.17,0,0,1-19.15-19.15v-36h38.3v36A19.17,19.17,0,0,1,122.73,192.51Zm-15.15-51.14v32a15.15,15.15,0,0,0,30.29,0v-32Z"/><path class="cls-4" d="M105.58,139.36v34a17.15,17.15,0,1,0,34.29,0v-34Z"/><path class="cls-4" d="M122.73,192.51a19.17,19.17,0,0,1-19.15-19.15v-36h38.3v36A19.17,19.17,0,0,1,122.73,192.51Zm-15.15-51.14v32a15.15,15.15,0,0,0,30.29,0v-32Z"/><path class="cls-1" d="M171.55,87.59c0,31.81-5.07,76.3-48.82,76.3H123c-43,0-48.82-45.1-48.82-76.9"/><path class="cls-3" d="M123,166.9h-.29c-34.2-.15-51.54-27-51.54-79.91a3,3,0,0,1,6,0c0,49.64,14.93,73.82,45.67,73.9,31.15-.08,45.66-23.37,45.66-73.3a3,3,0,1,1,6,0c0,19.58,0,79.08-51.54,79.31Z"/><path class="cls-3" d="M150.14,118.13h-12.2a12,12,0,0,1-12-12V99.94a8.3,8.3,0,0,1,8.29-8.29h20.21a8.3,8.3,0,0,1,8.29,8.29v5.63A12.58,12.58,0,0,1,150.14,118.13ZM134.21,96.06a3.88,3.88,0,0,0-3.88,3.88v6.17a7.62,7.62,0,0,0,7.61,7.61h12.2a8.16,8.16,0,0,0,8.16-8.15V99.94a3.88,3.88,0,0,0-3.88-3.88Z"/><path class="cls-3" d="M108.11,118.13H95.9a12.58,12.58,0,0,1-12.56-12.56V99.94a8.3,8.3,0,0,1,8.29-8.29h20.21a8.29,8.29,0,0,1,8.28,8.29v6.17A12,12,0,0,1,108.11,118.13ZM91.63,96.06a3.88,3.88,0,0,0-3.88,3.88v5.63a8.16,8.16,0,0,0,8.15,8.15h12.21a7.62,7.62,0,0,0,7.61-7.61V99.94a3.88,3.88,0,0,0-3.88-3.88Z"/><rect class="cls-3" x="117.92" y="101.19" width="10.21" height="4.41"/><rect class="cls-3" x="159.39" y="96.02" width="14.19" height="5.21" transform="translate(-26.25 115.91) rotate(-35.77)"/><rect class="cls-3" x="77.38" y="90.86" width="5.21" height="14.54" transform="matrix(0.53, -0.85, 0.85, 0.53, -45.62, 113.94)"/><path class="cls-3" d="M119.21,123.5a1,1,0,0,1-.84-.45,1,1,0,0,1,.29-1.39,8.67,8.67,0,0,1,1.85-.93,1,1,0,0,1,1.28.61,1,1,0,0,1-.61,1.28,6.73,6.73,0,0,0-1.42.71A1,1,0,0,1,119.21,123.5Z"/><path class="cls-1" d="M123.92,125a6.18,6.18,0,0,0,2.53-7.3,23.43,23.43,0,0,0-1.9-3.22,12,12,0,0,1-1.25-5.5"/><path class="cls-3" d="M123.92,126.59a1.61,1.61,0,0,1-.91-2.93,4.63,4.63,0,0,0,2-5.38,11.2,11.2,0,0,0-1.1-1.91c-.24-.36-.48-.72-.7-1.09A13.67,13.67,0,0,1,121.7,109a1.61,1.61,0,0,1,3.21,0,10.58,10.58,0,0,0,1,4.68c.2.33.41.65.62,1a13.6,13.6,0,0,1,1.4,2.49,7.74,7.74,0,0,1-3.11,9.21A1.63,1.63,0,0,1,123.92,126.59Z"/><path class="cls-3" d="M123,140.39A30.29,30.29,0,0,1,108,136.75a2.41,2.41,0,0,1,2.42-4.16c6.78,3.93,18.24,3.94,25,0a2.41,2.41,0,0,1,2.42,4.16A30.29,30.29,0,0,1,123,140.39Z"/><rect class="cls-3" x="97.86" y="97.96" width="10.12" height="13.87" rx="5.04" ry="5.04"/><rect class="cls-3" x="138.06" y="97.96" width="10.12" height="13.87" rx="5.04" ry="5.04"/><path class="cls-1" d="M70.5,73.47c-.2,5.61.68,12.82,5,19.16a48.55,48.55,0,0,1,27.4-8.93"/><path class="cls-3" d="M75.52,95.64a3.89,3.89,0,0,1-.47,0,3,3,0,0,1-2-1.27c-3.92-5.72-5.84-13-5.54-21a3.08,3.08,0,0,1,3.11-2.9,3,3,0,0,1,2.9,3.12,30.34,30.34,0,0,0,3,14.78,51.67,51.67,0,0,1,26.45-7.67,3,3,0,1,1,0,6A45.88,45.88,0,0,0,77.36,95,3,3,0,0,1,75.52,95.64Z"/><path class="cls-1" d="M89.09,54.07a32,32,0,0,0,1,15.16,21.68,21.68,0,0,0,14.06,14.92c7.82,2.66,49.54,4.4,67.44,3.44"/><path class="cls-3" d="M159.08,90.26c-20,0-48.79-1.47-55.74-3.84-7.75-2.63-13.14-8.34-15.59-16.5a34.56,34.56,0,0,1-1-16.24,2.4,2.4,0,0,1,4.74.77,29.56,29.56,0,0,0,.9,14.09,19.23,19.23,0,0,0,12.53,13.33c7.37,2.51,48.76,4.26,66.53,3.32A2.52,2.52,0,0,1,174,87.46,2.4,2.4,0,0,1,171.68,90C168.29,90.17,163.94,90.26,159.08,90.26Z"/><path class="cls-3" d="M123.91,88.8a2.4,2.4,0,0,1-1.22-.34A34,34,0,0,1,109.13,73.3c-2.88-6.44-4.18-17.08-2.89-23.71a2.4,2.4,0,0,1,4.72.92c-1.09,5.61.1,15.34,2.56,20.81a29.07,29.07,0,0,0,11.62,13,2.41,2.41,0,0,1-1.23,4.48Z"/><path class="cls-3" d="M131.4,88.87a2.36,2.36,0,0,1-1.54-.56,39.08,39.08,0,0,1-13.33-34.57,2.41,2.41,0,1,1,4.77.66A34.16,34.16,0,0,0,133,84.62a2.41,2.41,0,0,1-1.55,4.25Z"/><path class="cls-3" d="M157.67,89.84a2.4,2.4,0,0,1-1.76-.76c-9.3-10-13.15-21.46-12.1-36.15a2.51,2.51,0,0,1,2.56-2.23,2.4,2.4,0,0,1,2.23,2.57c-.95,13.45,2.39,23.48,10.83,32.53a2.4,2.4,0,0,1-1.76,4Z"/><path class="cls-3" d="M170.54,89.84a2.37,2.37,0,0,1-1.75-.76c-5.95-6.38-14.1-15.12-15.3-27.37a2.41,2.41,0,0,1,4.79-.47c1,10.63,8.24,18.35,14,24.56a2.4,2.4,0,0,1-1.76,4Z"/></g></svg>