<svg id="레이어_1" data-name="레이어 1" xmlns="http://www.w3.org/2000/svg" xmlns:xlink="http://www.w3.org/1999/xlink" viewBox="0 0 250 250"><defs><style>.cls-1{fill:#fff;}.cls-2{clip-path:url(#clip-path);}.cls-3{fill:#86898d;}</style><clipPath id="clip-path"><circle class="cls-1" cx="125" cy="125" r="125"/></clipPath></defs><title>대지 7</title><circle class="cls-1" cx="125" cy="125" r="125"/><g class="cls-2"><path class="cls-1" d="M180.32,122.46s2.92-13.7,1.94-21.82c-2.16-17.88-21.7-46.51-57.33-46.51h.14c-40.3,0-55.17,28.63-57.33,46.51-1,8.12,1.94,21.82,1.94,21.82"/><path class="cls-3" d="M180.33,125.46a3.36,3.36,0,0,1-.63-.06,3,3,0,0,1-2.32-3.57c0-.13,2.8-13.3,1.89-20.83C177.42,85.72,159.6,57.17,125,57.13c-38.67,0-52.31,27.59-54.27,43.87-.91,7.53,1.86,20.7,1.89,20.83a3,3,0,1,1-5.88,1.25c-.13-.58-3-14.28-2-22.8C67,82,82.11,51.19,124.93,51.12h.14c37,.07,57.78,29.36,60.17,49.16,1,8.52-1.85,22.22-2,22.8A3,3,0,0,1,180.33,125.46Z"/><path class="cls-1" d="M78.44,120.73c-3.24-1.09-9.33-1.52-12.74,2.3-2.58,2.88-3.55,7.81-2.62,12,2,9.07,8.77,13,15.36,13.59"/><path class="cls-3" d="M78.16,151.65c-9.26-.86-16-6.82-18-15.94-1.17-5.26.16-11.17,3.3-14.69,4.62-5.15,12.19-4.4,16-3.14l-1.92,5.7c-2.45-.82-7.2-1.16-9.55,1.46-1.85,2.07-2.66,6-1.91,9.36a13.76,13.76,0,0,0,12.7,11.26Z"/><path class="cls-1" d="M171.56,120.73c3.24-1.09,9.33-1.52,12.74,2.3,2.58,2.88,3.55,7.81,2.62,12-2,9.07-8.77,13-15.36,13.59"/><path class="cls-3" d="M171.84,151.65l-.56-6A13.75,13.75,0,0,0,184,134.41c.75-3.36-.06-7.3-1.92-9.38-2.33-2.61-7.09-2.27-9.54-1.45l-1.92-5.7c3.75-1.26,11.33-2,15.94,3.14,3.15,3.52,4.48,9.42,3.31,14.69C187.83,144.83,181.1,150.78,171.84,151.65Z"/><rect class="cls-3" x="53.08" y="184.31" width="143.84" height="153.81" rx="62.21" ry="62.21"/><path class="cls-1" d="M107.29,157.91V193a17.71,17.71,0,0,0,35.42,0V157.91Z"/><path class="cls-3" d="M125,212.73A19.74,19.74,0,0,1,105.29,193V155.9h39.42V193A19.74,19.74,0,0,1,125,212.73Zm-15.7-52.82V193a15.7,15.7,0,1,0,31.4,0v-33.1Z"/><path class="cls-1" d="M170.76,120c0,11.72,1.29,31.85-3.33,40.91-7.78,15.25-26.7,25.29-42.55,25.29s-33.66-10-41.43-25.11C78.79,152,79.08,131.77,79.08,120"/><path class="cls-3" d="M124.88,189.18c-17.61,0-36.16-11.25-44.11-26.74-4.74-9.26-4.72-28.07-4.7-40.51v-2h6v2c0,11.14,0,29.79,4,37.75,7,13.6,23.28,23.47,38.76,23.47,15.85,0,33-10.17,39.87-23.65,3.51-6.88,3.26-22,3.08-33,0-2.35-.07-4.55-.07-6.52h6c0,1.94,0,4.11.08,6.42.2,12.31.44,27.64-3.74,35.85C162.27,177.6,142.83,189.18,124.88,189.18Z"/><rect class="cls-3" x="100.42" y="125.33" width="10.41" height="12.22" rx="4.77" ry="4.77" transform="translate(211.24 262.87) rotate(180)"/><rect class="cls-3" x="139.28" y="125.33" width="10.41" height="12.22" rx="4.77" ry="4.77" transform="translate(288.98 262.87) rotate(180)"/><path class="cls-3" d="M98.54,121.32a1.61,1.61,0,0,1-.8-3c3.71-2.12,9.06-2.39,13.31-2.39a1.61,1.61,0,1,1,0,3.21c-3.85,0-8.66.22-11.72,2A1.61,1.61,0,0,1,98.54,121.32Z"/><path class="cls-3" d="M150.75,121.32a1.65,1.65,0,0,1-.8-.21c-3.06-1.75-7.87-2-11.72-2a1.61,1.61,0,1,1,0-3.21c4.25,0,9.59.27,13.31,2.39a1.61,1.61,0,0,1-.79,3Z"/><path class="cls-3" d="M78.9,124.09a3.09,3.09,0,0,1-1-.16,3,3,0,0,1-1.86-3.83c0-.13,4.44-12.92,4.93-21.43a3,3,0,0,1,1.53-2.45c1.19-.67,29.65-16.16,82.41-1.59a3,3,0,0,1,2.14,2.29,135.79,135.79,0,0,0,6.79,22.24,3,3,0,0,1-5.53,2.36A136.34,136.34,0,0,1,161.58,100c-42.78-11.36-68.64-1.86-74.73.85-.94,9.15-4.92,20.75-5.1,21.27A3,3,0,0,1,78.9,124.09Z"/><path class="cls-3" d="M136.36,156.68c-2.26.25-4.36,1.17-6.61,1.36-1.59.14-3.17-.13-4.75-.14-1.4,0-2.79.24-4.19.15-2.46-.14-4.73-1.11-7.17-1.37-1.29-.14-1.28,1.86,0,2,2.26.24,4.33,1.2,6.6,1.37,1.59.12,3.17-.14,4.76-.14,1.39,0,2.78.2,4.17.15,2.51-.09,4.71-1.11,7.19-1.38,1.27-.14,1.29-2.15,0-2Z"/><path class="cls-3" d="M113.37,159.34c2.43.52,4.3,2.74,6.48,3.82,1.88.93,3.37.63,5.44.62s3.29.2,5.08-.75c2-1.09,4-3.21,6.26-3.69,1.26-.27.73-2.2-.53-1.93a12.92,12.92,0,0,0-4.11,2.18c-2.45,1.59-3.76,2.17-6.7,2.19-2.72,0-4.1-.14-6.39-1.61-1.54-1-3.16-2.37-5-2.76-1.26-.28-1.79,1.66-.53,1.93Z"/><path class="cls-3" d="M121.57,169.49a12.69,12.69,0,0,0,6.86,0,1,1,0,0,0-.53-1.93,10.68,10.68,0,0,1-5.8,0,1,1,0,0,0-.53,1.93Z"/><path class="cls-3" d="M117.76,159.47a2,2,0,0,1,1-.15,128.06,128.06,0,0,0,14.79-.58c.22,0,.54,0,.55.25a.42.42,0,0,1-.2.33,16.27,16.27,0,0,1-7.44,3.42,8,8,0,0,1-3.89.12,26.61,26.61,0,0,1-3.36-1.62c-.41-.23-1.5-.74-1.64-1.23A.41.41,0,0,1,117.76,159.47Z"/><path class="cls-3" d="M89.43,98.44A3,3,0,0,1,87,93.7a10.76,10.76,0,0,0,1.76-8,3,3,0,1,1,5.92-1.07A16.69,16.69,0,0,1,91.9,97.16,3,3,0,0,1,89.43,98.44Z"/><path class="cls-3" d="M107.29,95.15a3.07,3.07,0,0,1-1.73-.54,3,3,0,0,1-.72-4.2,10.79,10.79,0,0,0,1.76-8,3,3,0,0,1,5.92-1.06,16.74,16.74,0,0,1-2.77,12.51A3,3,0,0,1,107.29,95.15Z"/><path class="cls-3" d="M154.93,97.6a3,3,0,0,1-2.46-4.74,10.8,10.8,0,0,0,1.77-8,3,3,0,0,1,5.92-1.07,16.75,16.75,0,0,1-2.77,12.52A3,3,0,0,1,154.93,97.6Z"/><path class="cls-3" d="M142.7,95.15a3,3,0,0,1-1.72-.54,3,3,0,0,1-.73-4.19,10.78,10.78,0,0,0,1.76-8,3,3,0,0,1,5.92-1.07,16.72,16.72,0,0,1-2.76,12.52A3,3,0,0,1,142.7,95.15Z"/><path class="cls-3" d="M121.83,94.46a3,3,0,0,1-2.45-4.74,10.76,10.76,0,0,0,1.76-8,3,3,0,1,1,5.92-1.07,16.69,16.69,0,0,1-2.76,12.51A3,3,0,0,1,121.83,94.46Z"/><path class="cls-3" d="M121.69,148.5a5.45,5.45,0,0,0,6.7,0c1.55-1.13.05-3.74-1.52-2.6a2.7,2.7,0,0,1-3.67,0c-1.53-1.18-3,1.43-1.51,2.6Z"/><path class="cls-3" d="M115.3,144.07c-1.16,5.05,4.37,7.31,8.26,4.8,1.62-1,.12-3.64-1.52-2.59-1.46.94-4.41,1.05-3.84-1.41.43-1.88-2.47-2.69-2.9-.8Z"/><path class="cls-3" d="M131.8,144.87c.56,2.45-2.39,2.34-3.84,1.41-1.64-1.05-3.15,1.55-1.52,2.59,3.89,2.5,9.42.25,8.26-4.8-.43-1.88-3.33-1.09-2.9.8Z"/><path class="cls-3" d="M138.8,160.72a1.11,1.11,0,0,1-.49-.12c-2.65-1.5-2.48-5-2.47-5.14a1,1,0,0,1,2,.12s-.11,2.39,1.45,3.27a1,1,0,0,1,.38,1.37A1,1,0,0,1,138.8,160.72Z"/><path class="cls-3" d="M111.2,160.72a1,1,0,0,1-.88-.5,1,1,0,0,1,.38-1.37c1.56-.88,1.46-3.25,1.46-3.27a1,1,0,0,1,.94-1.06,1.06,1.06,0,0,1,1.06.94c0,.15.18,3.64-2.47,5.14A1.07,1.07,0,0,1,111.2,160.72Z"/></g></svg>