<svg id="레이어_1" data-name="레이어 1" xmlns="http://www.w3.org/2000/svg" xmlns:xlink="http://www.w3.org/1999/xlink" viewBox="0 0 250 250"><defs><style>.cls-1{fill:#fff;}.cls-2{clip-path:url(#clip-path);}.cls-3{fill:#86898d;}</style><clipPath id="clip-path"><circle class="cls-1" cx="125" cy="125" r="125"/></clipPath></defs><title>대지 6</title><circle class="cls-1" cx="125" cy="125" r="125"/><g class="cls-2"><path class="cls-1" d="M190,102.37s4.36-16.17,3.22-25.76C191,57.79,166.65,21.69,124.57,21.69h.17c-47.59,0-66.79,35.75-69,54.92-1.13,9.6,3.62,25.76,3.62,25.76"/><path class="cls-3" d="M59.32,105.38a3,3,0,0,1-2.88-2.16c-.2-.69-4.9-16.87-3.72-27C55.33,54,77.14,18.76,124.57,18.68h.17c43,.09,69,36.94,71.45,57.57,1.2,10.06-3.12,26.23-3.31,26.91a3,3,0,0,1-5.8-1.57c0-.16,4.2-15.73,3.13-24.62C188,58.22,164.16,24.73,124.65,24.69c-43.59,0-63.59,32.07-66,52.27-1,8.88,3.47,24.41,3.52,24.57a3,3,0,0,1-2,3.73A3.12,3.12,0,0,1,59.32,105.38Z"/><path class="cls-1" d="M71.89,97.17c-3.68-1.24-10.57-1.72-14.44,2.6-2.93,3.27-4,8.86-3,13.63,2.28,10.29,9.94,14.71,17.41,15.41"/><path class="cls-3" d="M71.61,131.8c-10.31-1-17.81-7.59-20.06-17.75-1.3-5.85.17-12.39,3.66-16.28,5.09-5.7,13.49-4.86,17.64-3.45L70.93,100c-3-1-8.45-1.37-11.25,1.75-2.18,2.44-3.13,7.06-2.26,11,2.39,10.78,11.11,12.72,14.75,13.06Z"/><path class="cls-1" d="M177.42,97.17c3.67-1.24,10.57-1.72,14.44,2.6,2.92,3.27,4,8.86,3,13.63-2.28,10.29-9.94,14.71-17.4,15.41"/><path class="cls-3" d="M177.69,131.8l-.55-6c3.64-.34,12.35-2.28,14.75-13.06.87-3.92-.09-8.54-2.27-11-2.8-3.12-8.26-2.75-11.24-1.75l-1.92-5.7c4.15-1.41,12.54-2.25,17.64,3.45,3.48,3.88,5,10.43,3.66,16.28C195.5,124.21,188,130.84,177.69,131.8Z"/><rect class="cls-3" x="22.38" y="163.92" width="204.55" height="218.72" rx="86.12" ry="86.12"/><path class="cls-1" d="M102.53,124.87v43.86a22.12,22.12,0,1,0,44.24,0V124.87Z"/><path class="cls-3" d="M124.65,192.86a24.16,24.16,0,0,1-24.13-24.13V122.86h48.26v45.87A24.16,24.16,0,0,1,124.65,192.86Zm-20.12-66v41.86a20.12,20.12,0,0,0,40.24,0V126.87Z"/><path class="cls-1" d="M176.4,95c0,13.28,2.78,37.24-3.78,48.74-9.61,16.86-30.25,27.59-48.22,27.59S86.49,161,77.45,143.94c-6.57-12.4-5-34.27-5-47.64"/><path class="cls-3" d="M124.4,174.33c-20.16,0-40.56-11.92-49.6-29-5.92-11.16-5.63-28.44-5.39-42.33,0-2.4.08-4.66.08-6.72h6c0,2.09,0,4.39-.08,6.82-.21,12.5-.5,29.62,4.69,39.41,8,15.18,26.26,25.79,44.29,25.79,17.81,0,37-11,45.61-26.08,4.74-8.32,4.11-25.2,3.64-37.52-.13-3.58-.25-6.89-.25-9.73h6c0,2.77.12,6,.25,9.51.52,13.77,1.17,30.9-4.43,40.72C165.46,162.36,144.56,174.33,124.4,174.33Z"/><rect class="cls-3" x="96.73" y="102.37" width="11.8" height="13.85" rx="5.9" ry="5.9" transform="translate(205.26 218.59) rotate(-180)"/><rect class="cls-3" x="140.77" y="102.37" width="11.8" height="13.85" rx="5.9" ry="5.9" transform="translate(293.35 218.59) rotate(180)"/><path class="cls-3" d="M72.91,100.57a3,3,0,0,1-2.1-5.15c.13-.14,13.41-13.27,14.68-25.85a3,3,0,1,1,6,.61C90,84.94,75.63,99.12,75,99.72A3,3,0,0,1,72.91,100.57Z"/><path class="cls-3" d="M120.69,128.22a6.08,6.08,0,0,0,7.7.24c1.53-1.14,0-3.76-1.52-2.6-1.26.94-2.71,1.3-4.05.24-1.5-1.19-3.64.92-2.13,2.12Z"/><path class="cls-3" d="M113.85,123.67c-1.3,5.53,4.86,8,9.07,5.22,1.61-1.06.11-3.67-1.52-2.6-1.8,1.18-5.35,1.17-4.65-1.82.44-1.88-2.46-2.69-2.9-.8Z"/><path class="cls-3" d="M126.38,128.89c4.22,2.76,10.38.32,9.07-5.22-.44-1.88-3.34-1.09-2.9.8.7,3-2.84,3-4.65,1.82-1.62-1.07-3.13,1.54-1.52,2.6Z"/><path class="cls-3" d="M176.41,99.31a3,3,0,0,1-1.33-.31c-7.81-3.84-14.26-18.53-15.26-27a3,3,0,1,1,6-.72c.9,7.61,6.86,19.78,12,22.28a3,3,0,0,1-1.33,5.71Z"/><path class="cls-3" d="M104.22,79.39a3,3,0,0,1-1.9-.69,18.52,18.52,0,0,1-6.67-12.56,3,3,0,0,1,6-.54,12.63,12.63,0,0,0,4.49,8.45,3,3,0,0,1-1.91,5.34Z"/><path class="cls-3" d="M140.21,75.8a3,3,0,0,1-2.46-1.27,18.52,18.52,0,0,1-3.07-13.88,3,3,0,0,1,5.92,1.07,12.61,12.61,0,0,0,2.06,9.34,3,3,0,0,1-2.45,4.74Z"/><path class="cls-3" d="M127,74.69a3,3,0,0,1-2.47-1.28,18.57,18.57,0,0,1-3.07-13.88,3,3,0,0,1,5.92,1.07A12.66,12.66,0,0,0,129.49,70,3,3,0,0,1,127,74.69Z"/><path class="cls-3" d="M114.54,75.8a3,3,0,0,1-2.47-1.27A18.53,18.53,0,0,1,109,60.65a3,3,0,0,1,5.92,1.07A12.62,12.62,0,0,0,117,71.06a3,3,0,0,1-2.45,4.74Z"/><path class="cls-3" d="M154,78.69a3,3,0,0,1-2.46-1.27,18.55,18.55,0,0,1-3.07-13.89,3,3,0,1,1,5.92,1.08A12.59,12.59,0,0,0,156.44,74,3,3,0,0,1,154,78.69Z"/><path class="cls-3" d="M107.14,122.58H96.59a12.05,12.05,0,0,1-12-12v-6.31A8.23,8.23,0,0,1,92.77,96h18.75a8.23,8.23,0,0,1,8.22,8.22V110A12.61,12.61,0,0,1,107.14,122.58ZM92.77,100a4.22,4.22,0,0,0-4.21,4.21v6.31a8,8,0,0,0,8,8h10.55a8.59,8.59,0,0,0,8.59-8.58v-5.76a4.22,4.22,0,0,0-4.21-4.21Z"/><path class="cls-3" d="M152.21,122.58H141.66a12.05,12.05,0,0,1-12-12v-6.31A8.23,8.23,0,0,1,137.84,96h18.75a8.23,8.23,0,0,1,8.22,8.22V110A12.61,12.61,0,0,1,152.21,122.58ZM137.84,100a4.22,4.22,0,0,0-4.21,4.21v6.31a8,8,0,0,0,8,8h10.55A8.59,8.59,0,0,0,160.8,110v-5.76a4.22,4.22,0,0,0-4.21-4.21Z"/><rect class="cls-3" x="117.73" y="107.24" width="12.98" height="4.01"/><rect class="cls-3" x="161.27" y="98.96" width="19.62" height="5.21" transform="translate(-27.79 107.57) rotate(-32.42)"/><rect class="cls-3" x="75.45" y="92.2" width="5.21" height="19.12" transform="translate(-49.61 114.03) rotate(-58)"/><path class="cls-3" d="M124.65,144.8c-6.59,0-13.18-1.18-16.59-3.55a2,2,0,0,1,2.29-3.3c5.34,3.72,23.26,3.72,28.61,0a2,2,0,0,1,2.29,3.3C137.83,143.61,131.24,144.8,124.65,144.8Z"/><path class="cls-3" d="M107.61,142.12a2,2,0,0,1-1-3.72,3.66,3.66,0,0,0,1.54-1.69,2,2,0,1,1,3.61,1.73,7.74,7.74,0,0,1-3.08,3.4A2,2,0,0,1,107.61,142.12Z"/><path class="cls-3" d="M141.7,142.12a2.06,2.06,0,0,1-1-.28,7.74,7.74,0,0,1-3.08-3.4,2,2,0,0,1,3.62-1.73,3.64,3.64,0,0,0,1.53,1.69,2,2,0,0,1-1,3.72Z"/><path class="cls-3" d="M95.49,94.09a1.48,1.48,0,0,1-1.24-.65,1.5,1.5,0,0,1,.18-1.91c1.46-1.46,3.66-3.23,5.89-3.36a35.54,35.54,0,0,1,9,.7,1.54,1.54,0,0,1,1,.66,1.51,1.51,0,0,1,.2,1.15l-.35,1.52a1.48,1.48,0,0,1-.68.94,1.53,1.53,0,0,1-1.15.18,26.34,26.34,0,0,0-7.91-.77A18.09,18.09,0,0,0,96.09,94,1.57,1.57,0,0,1,95.49,94.09Z"/><path class="cls-3" d="M154.25,94.09a1.53,1.53,0,0,1-.6-.12,19.14,19.14,0,0,0-4.24-1.42,26.57,26.57,0,0,0-8,.77,1.53,1.53,0,0,1-1.16-.18,1.5,1.5,0,0,1-.67-.94l-.35-1.52a1.46,1.46,0,0,1,.2-1.15,1.51,1.51,0,0,1,1-.66,36,36,0,0,1,9-.7c2.23.13,4.44,1.9,5.9,3.36a1.5,1.5,0,0,1-1.06,2.56Z"/></g></svg>