<svg id="레이어_1" data-name="레이어 1" xmlns="http://www.w3.org/2000/svg" xmlns:xlink="http://www.w3.org/1999/xlink" viewBox="0 0 250 250"><defs><style>.cls-1{fill:#fff;}.cls-2{clip-path:url(#clip-path);}.cls-3{fill:#86898d;}</style><clipPath id="clip-path"><circle class="cls-1" cx="125" cy="125" r="125"/></clipPath></defs><title>대지 11</title><circle class="cls-1" cx="125" cy="125" r="125"/><g class="cls-2"><path class="cls-1" d="M199.71,188.5c3.68,5.36,3.42,10.89-2.61,14.68-6.87,4.32-15.19,5.55-23.27,6.34a286.62,286.62,0,0,1-58.13-.27c-16.88-1.8-34-1.46-50.46-6.17a26.14,26.14,0,0,1-11.55-7.34,7.69,7.69,0,0,1-1.8-6.62,13.06,13.06,0,0,1,2.16-4c5.41-7.86,10.65-17.48,12.51-26.94,1.77-9-.39-20-2.11-29-3.22-16.72-6.77-36.86.23-52.89A67.2,67.2,0,0,1,94.49,43.74c16.26-8.82,38.32-9.24,55.94-3.79a57,57,0,0,1,30.74,23.78,83.84,83.84,0,0,1,13.09,47.73A174.78,174.78,0,0,1,192,132.6c-1.76,12-3.5,24-1.34,36.14a44.15,44.15,0,0,0,8.59,19.15C199.43,188.09,199.57,188.29,199.71,188.5Z"/><path class="cls-3" d="M146.06,213.87a288.24,288.24,0,0,1-30.67-1.63c-5-.52-10.06-.88-15-1.21-11.86-.82-24.12-1.66-36-5.07a28.71,28.71,0,0,1-13-8.3,10.6,10.6,0,0,1-2.4-9.27,14.84,14.84,0,0,1,2.47-4.81c6.49-9.44,10.66-18.37,12.16-26,1.64-8.34-.41-19-2-27.51-3.09-16-7.23-37.57.36-55a70.19,70.19,0,0,1,31.14-34c16-8.66,38.28-10.19,58.26-4a60.34,60.34,0,0,1,32.37,25,87.29,87.29,0,0,1,13.58,49.44A177.8,177.8,0,0,1,195,133c-1.76,12.06-3.43,23.46-1.35,35.17a40.88,40.88,0,0,0,8,17.88l.5.71c2.48,3.62,3.42,7.33,2.72,10.74-.67,3.23-2.82,6.06-6.21,8.19-7.62,4.79-16.69,6-24.58,6.78C164.81,213.41,155.44,213.87,146.06,213.87ZM126.49,39.4c-11.21,0-22.06,2.37-30.57,7a64.23,64.23,0,0,0-28.49,31.1c-6.84,15.7-2.9,36.17,0,51.12,1.81,9.37,4,20.64,2.11,30.13-1.68,8.55-6.05,18-13,28.07a11,11,0,0,0-1.73,3.05,4.79,4.79,0,0,0,1.2,4,23.24,23.24,0,0,0,10.06,6.37c11.28,3.22,23.22,4,34.76,4.84,5,.34,10.13.69,15.2,1.23a284.25,284.25,0,0,0,57.52.26c7.21-.7,15.45-1.79,22-5.88a7.09,7.09,0,0,0,3.51-4.32c.46-2.23-.71-4.55-1.78-6.12l-.39-.54a47.12,47.12,0,0,1-9.12-20.4c-2.25-12.66-.43-25.08,1.32-37.09a174.07,174.07,0,0,0,2.21-20.78,81.35,81.35,0,0,0-12.6-46,54.42,54.42,0,0,0-29.12-22.55A78.86,78.86,0,0,0,126.49,39.4Z"/><path class="cls-1" d="M76.46,97.67a13.27,13.27,0,0,0-12.15,3,12.07,12.07,0,0,0-3.39,11.92c2.61,9,11.39,12.88,19.94,13.48"/><path class="cls-3" d="M80.65,129.06c-11.56-.82-20-6.67-22.62-15.64a15.18,15.18,0,0,1,4.23-15,16.15,16.15,0,0,1,14.95-3.7l-1.5,5.82a10.24,10.24,0,0,0-9.34,2.27,9.16,9.16,0,0,0-2.57,8.9c2.71,9.3,13,11,17.28,11.31Z"/><rect class="cls-3" x="55.45" y="166.82" width="142.62" height="152.51" rx="71.2" ry="71.2"/><path class="cls-1" d="M108.86,137.14v32.28a16.28,16.28,0,1,0,32.56,0V137.14Z"/><path class="cls-3" d="M125.14,187.71a18.3,18.3,0,0,1-18.29-18.29V135.14h36.57v34.28A18.3,18.3,0,0,1,125.14,187.71Zm-14.28-48.56v30.27a14.28,14.28,0,1,0,28.55,0V139.15Z"/><path class="cls-1" d="M173.23,102.16c0,11.62-.77,27.05-5.55,36-8.06,15.13-28.79,25.08-42,25.08-12.29,0-33.26-9.87-41.31-24.89-4.83-9-6.14-24.51-6.14-36.21,0-38.69,18.92-51.83,47.45-51.83S173.23,63,173.23,102.16Z"/><path class="cls-3" d="M125.7,166.27c-14.08,0-35.6-10.88-44-26.48-5.65-10.54-6.49-28.1-6.49-37.63,0-36.9,16.5-54.84,50.45-54.84s50.54,17.94,50.54,54.84c0,17.74-1.93,30-5.91,37.44C161.83,155.55,140.39,166.27,125.7,166.27Zm0-112.94c-30.32,0-44.44,15.52-44.44,48.83,0,7.22.57,25.06,5.78,34.79,7.62,14.23,28,23.3,38.66,23.3,12.68,0,32-9.64,39.32-23.48,3.5-6.57,5.2-17.88,5.2-34.61C170.22,68.39,156.49,53.33,125.7,53.33Z"/><path class="cls-1" d="M174.9,123.33C170,69.74,139.36,53.6,139.34,53.59c.27.14-8.63,10.52-9.14,11A123.89,123.89,0,0,1,98.65,87.26,154.79,154.79,0,0,1,84.5,93.63c-2.74,1.08-5.5,2.1-8.3,3-3.84,1.25-3.72-.55-5.33-3.9a14.51,14.51,0,0,1-1.56-4.44c-.47-3.94,3.79-9.72,5.94-12.9,3-4.37,6.24-8.5,9.56-12.59,2.6-3.2,4.62-6.85,8.17-9,8.57-5.2,18.81-6.23,28.54-7.44a87.66,87.66,0,0,1,32.39,1.79C172,52.75,181.77,73.5,182.59,91c.19,4.08,1.39,8.4,1.33,12.37-.07,5.18-2.18,10.72-2.67,16-.17,1.79-.34,3.72-1.54,5.06S175.06,125.12,174.9,123.33Z"/><path class="cls-3" d="M173.9,151.94h-.18a3,3,0,0,1-2.82-3.18c3.31-53.84-23.06-83.13-31.12-90.76-6.15,7.63-26.46,29.25-67.51,42.09a3,3,0,0,1-1.79-5.74c47.23-14.77,66.18-42.16,66.37-42.43a3,3,0,0,1,2-1.29,3.07,3.07,0,0,1,2.32.59c1.62,1.26,39.79,31.65,35.71,97.9A3,3,0,0,1,173.9,151.94Z"/><rect class="cls-3" x="102.71" y="99.83" width="10.97" height="17.76" rx="5.37" ry="5.37"/><rect class="cls-3" x="139.62" y="99.83" width="10.97" height="17.76" rx="5.37" ry="5.37"/><path class="cls-1" d="M126.65,108.69c0,1.81-.4,3.59.44,5.27a18.51,18.51,0,0,1,1.12,2.28,4.88,4.88,0,0,1-1.49,5.17"/><path class="cls-3" d="M126.72,123.42a2,2,0,0,1-1.28-3.55,2.87,2.87,0,0,0,.87-3,8.44,8.44,0,0,0-.6-1.25l-.41-.77a9.34,9.34,0,0,1-.7-5c0-.41.05-.81.05-1.22a2,2,0,0,1,4,0c0,.48,0,1-.05,1.43a5.94,5.94,0,0,0,.29,2.95l.33.63a11.16,11.16,0,0,1,.89,1.92A6.9,6.9,0,0,1,128,123,2,2,0,0,1,126.72,123.42Z"/><path class="cls-3" d="M126.65,140.66a20.93,20.93,0,0,1-14.84-6.13,3,3,0,0,1,4.25-4.26,15,15,0,0,0,21.18,0,3,3,0,0,1,4.25,4.26A20.93,20.93,0,0,1,126.65,140.66Z"/><path class="cls-3" d="M112.64,96a1.59,1.59,0,0,1-.7-.16,9.58,9.58,0,0,0-7.57,0,1.62,1.62,0,0,1-2.1-.86,1.6,1.6,0,0,1,.86-2.1,12.77,12.77,0,0,1,10.2.07,1.6,1.6,0,0,1-.69,3.05Z"/><path class="cls-3" d="M140.67,96A1.6,1.6,0,0,1,140,93a12.61,12.61,0,0,1,10.2-.07,1.6,1.6,0,0,1-1.24,3,9.58,9.58,0,0,0-7.57,0A1.55,1.55,0,0,1,140.67,96Z"/></g></svg>