<svg id="레이어_1" data-name="레이어 1" xmlns="http://www.w3.org/2000/svg" xmlns:xlink="http://www.w3.org/1999/xlink" viewBox="0 0 250 250"><defs><style>.cls-1{fill:#fff;}.cls-2{clip-path:url(#clip-path);}.cls-3{fill:#86898d;}</style><clipPath id="clip-path"><circle class="cls-1" cx="125" cy="125" r="125"/></clipPath></defs><title>대지 12</title><circle class="cls-1" cx="125" cy="125" r="125"/><g class="cls-2"><rect class="cls-3" x="43.26" y="170.83" width="163.47" height="174.8" rx="81.61" ry="81.61"/><path class="cls-1" d="M107.86,137.14v34a17.14,17.14,0,0,0,34.28,0v-34Z"/><path class="cls-3" d="M125,190.25a19.15,19.15,0,0,1-19.14-19.13v-36h38.28v36A19.16,19.16,0,0,1,125,190.25Zm-15.13-51.1v32a15.13,15.13,0,0,0,30.26,0v-32Z"/><path class="cls-1" d="M144.55,46.31s1-4.84.68-7.71c-.76-6.32-7.66-16.44-20.26-16.44H125c-14.25,0-19.5,10.12-20.26,16.44-.35,2.87.68,7.71.68,7.71"/><path class="cls-3" d="M105.44,49.31a3,3,0,0,1-2.93-2.38,32.39,32.39,0,0,1-.73-8.7c.86-7.08,6.71-19.06,23.2-19.08h0c14.25,0,22.26,11.4,23.19,19.09a32.74,32.74,0,0,1-.73,8.69,3,3,0,0,1-5.88-1.25,26.79,26.79,0,0,0,.64-6.72c-.58-4.81-6.24-13.78-17.25-13.8-12.3,0-16.63,8.68-17.25,13.8a27.35,27.35,0,0,0,.64,6.72,3,3,0,0,1-2.32,3.56A2.7,2.7,0,0,1,105.44,49.31Z"/><path class="cls-1" d="M182.36,103.84s3-14,2-22.23c-2.2-18.2-22.1-47.38-58.4-47.38h.14c-41,0-56.2,29.18-58.4,47.38-1,8.28,2,22.23,2,22.23"/><path class="cls-3" d="M69.65,106.85a3,3,0,0,1-2.94-2.38c-.12-.59-3.06-14.55-2-23.22,2.24-18.56,17.67-49.95,61.23-50h.15c37.66.08,58.81,29.88,61.24,50,1.05,8.67-1.89,22.63-2,23.22a3,3,0,0,1-5.88-1.26c0-.13,2.86-13.56,1.93-21.24-1.88-15.59-20-44.69-55.35-44.73C86.59,37.28,72.67,65.37,70.66,82c-.92,7.69,1.91,21.11,1.93,21.24a3,3,0,0,1-2.31,3.57A2.7,2.7,0,0,1,69.65,106.85Z"/><path class="cls-1" d="M78.6,104.25a13.27,13.27,0,0,0-12.15,3,12.07,12.07,0,0,0-3.4,11.92c2.61,9,11.39,12.88,20,13.48"/><path class="cls-3" d="M82.78,135.64c-11.56-.82-20-6.67-22.62-15.64a15.19,15.19,0,0,1,4.23-15,16.16,16.16,0,0,1,15-3.7l-1.49,5.82a10.19,10.19,0,0,0-9.35,2.28,9.13,9.13,0,0,0-2.56,8.89c2.7,9.3,13,11,17.27,11.31Z"/><path class="cls-1" d="M171.4,104.25a13.27,13.27,0,0,1,12.15,3,12.07,12.07,0,0,1,3.4,11.92c-2.61,9-11.39,12.88-19.95,13.48"/><path class="cls-3" d="M167.21,135.64l-.42-6c4.29-.3,14.57-2,17.27-11.31a9.13,9.13,0,0,0-2.56-8.89,10.2,10.2,0,0,0-9.35-2.28l-1.49-5.82a16.16,16.16,0,0,1,15,3.7,15.18,15.18,0,0,1,4.23,15C187.23,129,178.77,134.82,167.21,135.64Z"/><path class="cls-1" d="M172.28,96.31c0,11.93-.76,37.93-5.46,47.15-7.92,15.53-25.54,25.75-41.26,25.75-16.84,0-32.69-10.14-40.6-25.57-4.75-9.25-6-36.56-6-48.57"/><path class="cls-3" d="M125.56,172.21c-17.81,0-34.8-10.67-43.28-27.19-6.28-12.27-6.36-49.57-6.36-50a3,3,0,0,1,6,0c0,14,1.54,39.11,5.69,47.2,7.46,14.54,22.35,23.93,37.93,23.93,15.23,0,31.46-10.14,38.58-24.11,3.79-7.41,5.13-28.51,5.13-45.78a3,3,0,0,1,6,0c0,8.72-.42,38-5.79,48.51C161.41,160.69,142.93,172.21,125.56,172.21Z"/><path class="cls-1" d="M172.28,96.31c-18.46,1-50.95-.81-59-3.55A22.34,22.34,0,0,1,98.77,77.38a33,33,0,0,1-1-15.64S80.68,83.41,85.94,102.56c0,0-11-2.45-11-20.41"/><path class="cls-3" d="M85.94,105a2.24,2.24,0,0,1-.52,0c-.53-.12-12.85-3.09-12.88-22.75a2.39,2.39,0,0,1,2.4-2.41h0a2.39,2.39,0,0,1,2.4,2.4c0,8.83,2.83,13.43,5.33,15.76C81,79.44,95.22,61.09,95.88,60.25a2.41,2.41,0,0,1,4.27,1.87,30.67,30.67,0,0,0,.92,14.57,20,20,0,0,0,13,13.79c7.44,2.53,39.5,4.44,58.11,3.43a2.4,2.4,0,0,1,.26,4.8c-17.76.94-51.26-.73-59.92-3.68-8-2.71-13.51-8.57-16-17A36.87,36.87,0,0,1,95,70.39C90.59,78,85.15,90.6,88.26,101.92a2.4,2.4,0,0,1-2.32,3Z"/><path class="cls-3" d="M133.68,97.48a2.34,2.34,0,0,1-1.22-.34,35,35,0,0,1-14-15.6c-3-6.63-4.31-17.58-3-24.4a2.4,2.4,0,1,1,4.72.92c-1.13,5.79.11,15.84,2.65,21.51a30.07,30.07,0,0,0,12,13.43,2.41,2.41,0,0,1-1.23,4.48Z"/><path class="cls-3" d="M141.41,97.55a2.39,2.39,0,0,1-1.55-.56,40.25,40.25,0,0,1-13.72-35.58,2.41,2.41,0,0,1,4.77.66A35.29,35.29,0,0,0,143,93.3a2.41,2.41,0,0,1-1.54,4.25Z"/><path class="cls-3" d="M168.49,98.55a2.4,2.4,0,0,1-1.76-.76c-9.1-9.76-14.15-18.51-13-34.32a2.53,2.53,0,0,1,2.57-2.23,2.41,2.41,0,0,1,2.23,2.57c-.88,12.57,2.08,20.32,11.76,30.7a2.4,2.4,0,0,1-1.76,4Z"/><path class="cls-1" d="M124.7,113.38c0,1.81-.39,3.6.44,5.28a16.6,16.6,0,0,1,1.12,2.28,4.86,4.86,0,0,1-1.48,5.17"/><path class="cls-3" d="M124.78,128.11a2,2,0,0,1-1.55-.72,2,2,0,0,1,.27-2.83,2.88,2.88,0,0,0,.86-3,7.09,7.09,0,0,0-.6-1.24l-.41-.78a9.41,9.41,0,0,1-.69-5c0-.4,0-.81,0-1.21a2,2,0,1,1,4,0c0,.47,0,1,0,1.42a6,6,0,0,0,.28,3l.34.64a11.42,11.42,0,0,1,.89,1.91,6.89,6.89,0,0,1-2.12,7.35A2,2,0,0,1,124.78,128.11Z"/><rect class="cls-3" x="99.96" y="106.86" width="11.08" height="14.77" rx="5.54" ry="5.54"/><rect class="cls-3" x="138.96" y="106.86" width="11.08" height="14.77" rx="5.33" ry="5.33"/><path class="cls-3" d="M109.94,100a1.55,1.55,0,0,1-.69-.16,9.61,9.61,0,0,0-7.58,0A1.62,1.62,0,0,1,99.58,99a1.59,1.59,0,0,1,.86-2.09,12.65,12.65,0,0,1,10.2.07,1.6,1.6,0,0,1-.7,3Z"/><path class="cls-3" d="M140.06,100a1.6,1.6,0,0,1-.7-3,12.57,12.57,0,0,1,10.2-.07,1.6,1.6,0,0,1,.87,2.09,1.62,1.62,0,0,1-2.1.87,9.58,9.58,0,0,0-7.57,0A1.62,1.62,0,0,1,140.06,100Z"/><path class="cls-3" d="M109.73,127.2H97.09A10.19,10.19,0,0,1,86.91,117v-7.3a7.9,7.9,0,0,1,7.89-7.89h17.74a7.9,7.9,0,0,1,7.89,7.89v6.77A10.71,10.71,0,0,1,109.73,127.2ZM94.8,105.85a3.88,3.88,0,0,0-3.88,3.88V117a6.18,6.18,0,0,0,6.17,6.16h12.64a6.7,6.7,0,0,0,6.69-6.69v-6.77a3.88,3.88,0,0,0-3.88-3.88Z"/><path class="cls-3" d="M152.39,127.2H139.74A10.18,10.18,0,0,1,129.57,117v-7.3a7.9,7.9,0,0,1,7.89-7.89H155.2a7.9,7.9,0,0,1,7.89,7.89v6.77A10.71,10.71,0,0,1,152.39,127.2Zm-14.93-21.35a3.88,3.88,0,0,0-3.88,3.88V117a6.17,6.17,0,0,0,6.16,6.16h12.65a6.7,6.7,0,0,0,6.69-6.69v-6.77a3.88,3.88,0,0,0-3.88-3.88Z"/><rect class="cls-3" x="118.43" y="112.47" width="12.29" height="4.01"/><path class="cls-3" d="M125,147.79a21.2,21.2,0,0,1-17.27-8.45,2,2,0,0,1,1.6-3.2h31.25a2,2,0,0,1,1.63,3.17,21.06,21.06,0,0,1-17,8.48Zm-10.93-7.65a18.15,18.15,0,0,0,11.12,3.64,17.69,17.69,0,0,0,10.71-3.64Z"/><rect class="cls-3" x="80.75" y="100.82" width="6.01" height="11.19" transform="translate(-46.76 142.52) rotate(-67.26)"/><rect class="cls-3" x="160.65" y="103.41" width="11.19" height="6.01" transform="translate(-28.22 72.59) rotate(-22.76)"/></g></svg>