<svg xmlns="http://www.w3.org/2000/svg" viewBox="0 0 15.79 18.23"><defs><style>.cls-1{fill:#de4747;}.cls-2{fill:#1e1e1e;}.cls-3{fill:#fff;}</style></defs><title>대지 2</title><g id="Object"><path class="cls-1" d="M5.8,9a.53.53,0,0,1-.27-.08.5.5,0,0,1-.23-.42v-7A.5.5,0,0,1,5.53,1,.49.49,0,0,1,6,1l8,3.5a.5.5,0,0,1,0,.92L6,8.92A.45.45,0,0,1,5.8,9Z"/><path class="cls-2" d="M4.8,14.66a1.25,1.25,0,0,1-1.25-1.25v-12a1.25,1.25,0,0,1,2.5,0v12A1.25,1.25,0,0,1,4.8,14.66Z"/><circle class="cls-3" cx="4.8" cy="14.76" r="2.31"/><path class="cls-2" d="M4.8,18.07a3.31,3.31,0,1,1,3.31-3.31A3.32,3.32,0,0,1,4.8,18.07Zm0-4.62a1.31,1.31,0,1,0,1.31,1.31A1.31,1.31,0,0,0,4.8,13.45Z"/></g></svg>