<svg id="레이어_1" data-name="레이어 1" xmlns="http://www.w3.org/2000/svg" xmlns:xlink="http://www.w3.org/1999/xlink" viewBox="0 0 250 250"><defs><style>.cls-1{fill:#fff;}.cls-2{clip-path:url(#clip-path);}.cls-3{fill:#86898d;}.cls-4{fill:none;stroke:#86898d;stroke-linecap:round;stroke-miterlimit:10;stroke-width:1.5px;}</style><clipPath id="clip-path"><circle class="cls-1" cx="125" cy="125" r="125"/></clipPath></defs><title>대지 9</title><circle class="cls-1" cx="125" cy="125" r="125"/><g class="cls-2"><path class="cls-3" d="M150,386.61H100A72.79,72.79,0,0,1,27.4,314V253.61c0-44.33,35.85-76.25,80.6-80.6h34c45.86,3.34,80.6,36.27,80.6,80.6V314A72.79,72.79,0,0,1,150,386.61Z"/><path class="cls-1" d="M184.71,93.84S193.58,28.05,125,27.36c-70.73.69-59.71,66.48-59.71,66.48"/><path class="cls-3" d="M65.29,96.85a3,3,0,0,1-3-2.51c-.21-1.21-4.74-29.7,12.43-50.19C85.58,31.23,102.48,24.57,125,24.35c21.57.22,38,6.69,48.83,19.23,17.72,20.48,14,49.44,13.89,50.66a3,3,0,0,1-6-.8c0-.27,3.44-27.57-12.5-46C159.55,36.32,144.66,30.56,125,30.36,104.39,30.57,89,36.49,79.39,48,64,66.31,68.21,93.08,68.26,93.35a3,3,0,0,1-2.47,3.45A2.92,2.92,0,0,1,65.29,96.85Z"/><path class="cls-1" d="M69.87,93.73A14.3,14.3,0,0,0,56.78,97a13,13,0,0,0-3.66,12.85c2.81,9.7,12.27,13.87,21.49,14.52"/><path class="cls-3" d="M74.4,127.32C62,126.45,53,120.21,50.23,110.64a16.1,16.1,0,0,1,4.5-15.89,17.19,17.19,0,0,1,15.88-3.93l-1.49,5.83a11.26,11.26,0,0,0-10.29,2.5A10.07,10.07,0,0,0,56,109c2.94,10.17,14.14,12,18.81,12.37Z"/><path class="cls-1" d="M181.34,93.73A14.31,14.31,0,0,1,194.43,97a13.05,13.05,0,0,1,3.66,12.85c-2.82,9.7-12.28,13.87-21.49,14.52"/><path class="cls-3" d="M176.81,127.32l-.43-6c4.68-.34,15.87-2.2,18.82-12.37a10.12,10.12,0,0,0-2.82-9.81,11.24,11.24,0,0,0-10.3-2.5l-1.49-5.83a17.2,17.2,0,0,1,15.89,3.93A16.1,16.1,0,0,1,201,110.64C198.19,120.21,189.16,126.45,176.81,127.32Z"/><path class="cls-1" d="M107.46,136.26V171a17.54,17.54,0,1,0,35.08,0V136.26Z"/><path class="cls-1" d="M125,190.58A19.57,19.57,0,0,1,105.45,171V134.25h39.09V171A19.56,19.56,0,0,1,125,190.58Zm-15.54-52.32V171a15.54,15.54,0,0,0,31.08,0V138.26Z"/><path class="cls-1" d="M107.46,136.26V171a17.54,17.54,0,1,0,35.08,0V136.26Z"/><path class="cls-3" d="M125,190.58A19.57,19.57,0,0,1,105.45,171V134.25h39.09V171A19.56,19.56,0,0,1,125,190.58Zm-15.54-52.32V171a15.54,15.54,0,0,0,31.08,0V138.26Z"/><path class="cls-4" d="M107.46,136.26V171a17.54,17.54,0,1,0,35.08,0V136.26Z"/><path class="cls-4" d="M125,190.58A19.57,19.57,0,0,1,105.45,171V134.25h39.09V171A19.56,19.56,0,0,1,125,190.58Zm-15.54-52.32V171a15.54,15.54,0,0,0,31.08,0V138.26Z"/><path class="cls-1" d="M180.63,80.47a139.31,139.31,0,0,1,.79,18.09c0,36.36-17.5,65.84-55.82,65.84-38.71,0-55.82-29.48-55.82-65.84a131.91,131.91,0,0,1,1-19.44"/><path class="cls-3" d="M125.6,167.41c-36.83,0-58.83-25.74-58.83-68.85a134.68,134.68,0,0,1,1-19.81,3,3,0,0,1,6,.73,128.81,128.81,0,0,0-1,19.08c0,39.34,19.75,62.83,52.82,62.83s52.82-23.49,52.82-62.83a133.93,133.93,0,0,0-.78-17.78,3,3,0,1,1,6-.63,143,143,0,0,1,.8,18.41C184.43,141,161.89,167.41,125.6,167.41Z"/><rect class="cls-3" x="101.72" y="96.73" width="10.8" height="16.09" rx="5.37" ry="5.37"/><rect class="cls-3" x="142.07" y="96.73" width="10.8" height="16.09" rx="5.37" ry="5.37"/><path class="cls-3" d="M127.3,140.86a20.91,20.91,0,0,1-16-7.67,2,2,0,0,1,1.52-3.31h28.86a2,2,0,0,1,1.52,3.31A20.93,20.93,0,0,1,127.3,140.86Zm-9.27-7a16.26,16.26,0,0,0,18.53,0Z"/><path class="cls-3" d="M143,93.35a2,2,0,0,1-.93-3.79,14.4,14.4,0,0,1,9.49-1.14,2,2,0,0,1,1.62,2.33,2,2,0,0,1-2.33,1.61,10.38,10.38,0,0,0-6.93.76A1.9,1.9,0,0,1,143,93.35Z"/><path class="cls-1" d="M153.62,59.76c11.23,2.34,23.4,12.49,27.46,22.1"/><path class="cls-3" d="M181.08,84.87A3,3,0,0,1,178.31,83c-3.78-9-15.37-18.26-25.31-20.32a3,3,0,0,1,1.23-5.89C166,59.28,179.33,70,183.85,80.69a3,3,0,0,1-2.77,4.18Z"/><path class="cls-1" d="M97.13,60.1C78.51,63.2,71,79.12,71,79.12"/><path class="cls-3" d="M71,82.12a3.12,3.12,0,0,1-1.28-.28,3,3,0,0,1-1.43-4c.33-.7,8.4-17.37,28.34-20.7a3,3,0,1,1,1,5.93C80.75,65.88,73.79,80.25,73.73,80.4A3,3,0,0,1,71,82.12Z"/><path class="cls-3" d="M106.4,67.91a3,3,0,0,1-.85-5.89A14.43,14.43,0,0,0,115,52.94a3,3,0,1,1,5.7,1.92,20.52,20.52,0,0,1-13.42,12.92A2.9,2.9,0,0,1,106.4,67.91Z"/><path class="cls-3" d="M125.9,69.57a3.07,3.07,0,0,1-1.73-.54,3,3,0,0,1-.72-4.2,12.05,12.05,0,0,0,2-8.95,3,3,0,0,1,5.92-1.08,18,18,0,0,1-3,13.5A3,3,0,0,1,125.9,69.57Z"/><path class="cls-3" d="M143.75,70.64a1.83,1.83,0,0,1-.33,0,3,3,0,0,1-2.66-3.31,12.09,12.09,0,0,0-4.52-10.65,3,3,0,0,1,3.69-4.76A18.26,18.26,0,0,1,146.74,68,3,3,0,0,1,143.75,70.64Z"/><path class="cls-3" d="M111.83,93.35a1.94,1.94,0,0,1-.93-.23,10.42,10.42,0,0,0-6.92-.76,2,2,0,1,1-.71-3.94,14.33,14.33,0,0,1,9.48,1.14,2,2,0,0,1-.92,3.79Z"/><path class="cls-1" d="M127.77,120a4.72,4.72,0,0,0,1.93-5.57,17.61,17.61,0,0,0-1.45-2.46,8.41,8.41,0,0,1-1-2.2"/><path class="cls-3" d="M127.77,122a2,2,0,0,1-1.13-3.66,2.75,2.75,0,0,0,1.2-3.17,8.12,8.12,0,0,0-.76-1.32c-.19-.28-.38-.57-.55-.86a10.57,10.57,0,0,1-1.12-2.56,2,2,0,0,1,1.21-2.56,2,2,0,0,1,2.56,1.22,7.34,7.34,0,0,0,.79,1.84l.45.71a11.46,11.46,0,0,1,1.14,2,6.68,6.68,0,0,1-2.66,8A2,2,0,0,1,127.77,122Z"/></g></svg>