<svg id="레이어_1" data-name="레이어 1" xmlns="http://www.w3.org/2000/svg" xmlns:xlink="http://www.w3.org/1999/xlink" viewBox="0 0 250 250"><defs><style>.cls-1{fill:#fff;}.cls-2{clip-path:url(#clip-path);}.cls-3{fill:#86898d;}</style><clipPath id="clip-path"><circle class="cls-1" cx="125" cy="125" r="125"/></clipPath></defs><title>대지 13</title><circle class="cls-1" cx="125" cy="125" r="125"/><g class="cls-2"><path class="cls-1" d="M176.68,115c5.82-11.8,6-27.15,3.81-40.22C178.1,60.84,172.38,50,161.11,45c-.59-.26-.25.31-.59-.26-9.82-16.26-28.59-18.5-44.36-15.94C96.41,32,78.34,41.4,70.94,61c-3.69,9.76-4.92,34.22,0,44.55,3.23,6.79,4.56,4,8.51,10.44"/><path class="cls-3" d="M79.45,119a3,3,0,0,1-2.57-1.44,12.56,12.56,0,0,0-3.57-4.11c-1.8-1.39-3.21-2.67-5.08-6.61C62.84,95.56,64.33,70,68.12,60c8.78-23.26,30.71-31.4,47.56-34.13,12.39-2,34.8-2.49,46.91,16.53,11.08,5.06,18.09,15.79,20.86,31.88,1.61,9.37,3.22,27.29-4.07,42.06a3,3,0,0,1-5.4-2.66c4.78-9.68,6.07-23.67,3.55-38.38-2.42-14-8-23-17.1-27.27l-1.51-.11-1-1.6C147.79,29.46,127.7,30,116.64,31.76c-15.28,2.48-35.13,9.75-42.89,30.32-3.36,8.9-4.65,32.64-.1,42.2,1.41,2.94,2.22,3.57,3.33,4.43a18.41,18.41,0,0,1,5,5.73A3,3,0,0,1,79.45,119Z"/><path class="cls-1" d="M78.48,95.08c-3.38-1.21-9.71-1.68-13.27,2.53-2.68,3.19-3.69,8.63-2.72,13.28,2.09,10,13.22,14.33,20.08,15"/><path class="cls-3" d="M82.28,128.89c-9.39-.92-20.51-6.75-22.73-17.38-1.19-5.68.16-12,3.36-15.84,4.18-4.94,11.53-5.23,16.59-3.42l-2,5.66c-2.65-.94-7.49-1.29-10,1.64-2,2.38-2.88,6.89-2.08,10.72,1.71,8.19,11.37,12,17.44,12.64Z"/><path class="cls-1" d="M173,95.08c3.38-1.21,9.72-1.68,13.28,2.53,2.68,3.19,3.69,8.63,2.72,13.28-2.1,10-13.23,14.33-20.09,15"/><path class="cls-3" d="M169.25,128.89l-.59-6c6.07-.6,15.73-4.45,17.43-12.63.81-3.84-.07-8.35-2.07-10.73-2.48-2.93-7.31-2.59-10-1.64l-2-5.66c5.06-1.82,12.41-1.52,16.58,3.42,3.2,3.8,4.56,10.16,3.37,15.84C189.76,122.14,178.64,128,169.25,128.89Z"/><rect class="cls-3" x="29.14" y="173.05" width="192.57" height="205.92" rx="79.55" ry="79.55"/><path class="cls-1" d="M106.78,132.46v38.87c0,10.83,8.5,19.6,19,19.6s19-8.77,19-19.6V132.46Z"/><path class="cls-3" d="M125.76,192.94c-11.57,0-21-9.69-21-21.61V130.46h42v40.87C146.75,183.25,137.34,192.94,125.76,192.94Zm-17-58.47v36.86c0,9.71,7.62,17.6,17,17.6s17-7.89,17-17.6V134.47Z"/><path class="cls-1" d="M173.84,92c0,13-1,23.78-2.42,37.64-2.21,21.74-29.4,37.64-46,37.64h.34c-16.65,0-43.84-15.9-46-37.64-1.41-13.86-2.42-24.62-2.42-37.64"/><path class="cls-3" d="M125.72,170.32h-.35C107.25,170.1,79,153.24,76.67,130,75.2,115.5,74.24,105,74.24,92h6c0,12.71,1,23,2.4,37.34,2,19.85,27.33,34.82,42.89,34.93,15.56-.11,40.87-15.08,42.89-34.94,1.45-14.29,2.4-24.62,2.4-37.33h6c0,13-1,23.46-2.43,37.94-2.36,23.26-30.58,40.12-48.69,40.34Z"/><rect class="cls-3" x="99.08" y="101.55" width="11.13" height="13.49" rx="5.57" ry="5.57" transform="translate(209.3 216.58) rotate(-180)"/><rect class="cls-3" x="140.64" y="101.55" width="11.13" height="13.49" rx="5.57" ry="5.57" transform="translate(292.41 216.58) rotate(-180)"/><path class="cls-3" d="M106.15,123.52h-4.44a14.24,14.24,0,0,1-14.23-14.23v-4.81A10.6,10.6,0,0,1,98.06,93.9h12.26a10.59,10.59,0,0,1,10.58,10.58v4.28A14.77,14.77,0,0,1,106.15,123.52ZM98.06,97.91a6.58,6.58,0,0,0-6.57,6.57v4.81a10.23,10.23,0,0,0,10.22,10.22h4.44a10.77,10.77,0,0,0,10.75-10.75v-4.28a6.59,6.59,0,0,0-6.58-6.57Z"/><path class="cls-3" d="M148.16,123.52h-4.44a14.24,14.24,0,0,1-14.23-14.23v-4.81A10.6,10.6,0,0,1,140.08,93.9h12.25a10.59,10.59,0,0,1,10.58,10.58v4.28A14.77,14.77,0,0,1,148.16,123.52Zm-8.08-25.61a6.58,6.58,0,0,0-6.58,6.57v4.81a10.23,10.23,0,0,0,10.22,10.22h4.44a10.77,10.77,0,0,0,10.75-10.75v-4.28a6.58,6.58,0,0,0-6.58-6.57Z"/><rect class="cls-3" x="118.9" y="104.84" width="12.25" height="4.01"/><rect class="cls-3" x="159.89" y="96.76" width="18.68" height="5.21" transform="translate(-26.78 109.01) rotate(-33.24)"/><rect class="cls-3" x="78.86" y="90.45" width="5.21" height="18.21" transform="translate(-46.35 114.04) rotate(-57.17)"/><path class="cls-1" d="M124.25,115a26.48,26.48,0,0,0-1.49,3.14,6.84,6.84,0,0,0,2,7.1"/><path class="cls-3" d="M124.74,127.28a2,2,0,0,1-1.3-.48,8.88,8.88,0,0,1-2.59-9.25,15,15,0,0,1,1.13-2.48l.47-.91a2,2,0,0,1,3.61,1.75l-.54,1a10.14,10.14,0,0,0-.85,1.83,4.8,4.8,0,0,0,1.37,5,2,2,0,0,1,.23,2.83A2,2,0,0,1,124.74,127.28Z"/><path class="cls-3" d="M128,147.06c-.74,0-1.5,0-2.28-.1A26.76,26.76,0,0,1,110,140.49c-2.32-2.08-3.26-4.64-2.51-6.87a4.85,4.85,0,0,1,2.44-2.88c2.54-1.24,5.82-.11,8.45.8a18.75,18.75,0,0,0,2.15.66c5.43,1,8.17,1.32,13.43.16.42-.09.89-.23,1.4-.37,2.33-.65,5.22-1.47,7.51-.27a5,5,0,0,1,2.51,3.47c.67,3.05-1.63,6.12-4.05,7.69A23.28,23.28,0,0,1,128,147.06ZM112.46,134.2a1.71,1.71,0,0,0-.8.15c-.08,0-.26.13-.41.56-.24.71.55,1.84,1.39,2.59A22.75,22.75,0,0,0,126,143a19,19,0,0,0,13.09-3.46c1.45-.92,2.53-2.53,2.32-3.45-.14-.63-.36-.74-.44-.79h0c-.87-.44-3.18.19-4.56.58-.59.16-1.14.32-1.62.43-5.94,1.31-9.3.94-15-.14a22.11,22.11,0,0,1-2.7-.81A17.63,17.63,0,0,0,112.46,134.2Z"/><path class="cls-3" d="M140.61,92.19a2,2,0,0,1-.55-3.93,31.31,31.31,0,0,1,9.94-.71,2,2,0,0,1-.3,4,27.28,27.28,0,0,0-8.56.57A2,2,0,0,1,140.61,92.19Z"/><path class="cls-3" d="M108.81,92.19a1.93,1.93,0,0,1-.53-.07,27.07,27.07,0,0,0-8.56-.57,2,2,0,0,1-2.15-1.85,2,2,0,0,1,1.85-2.15,31.31,31.31,0,0,1,9.94.71,2,2,0,0,1-.55,3.93Z"/><path class="cls-3" d="M134.11,141.57a1.42,1.42,0,0,1-1-.42l-4.67-4.81a1.4,1.4,0,1,1,2-2l3.33,3.43,1.94-3.66a1.4,1.4,0,0,1,2.48,1.32l-2.84,5.36a1.43,1.43,0,0,1-1,.73Z"/><path class="cls-3" d="M126.92,66.6a1.91,1.91,0,0,1-.87-.2,27.2,27.2,0,0,1-13.78-14.71A2,2,0,1,1,116,50.26a23.24,23.24,0,0,0,11.78,12.53,2,2,0,0,1-.87,3.81Z"/><path class="cls-3" d="M112.6,67.28a1.06,1.06,0,0,1-.25,0A21.86,21.86,0,0,1,98.42,59.5a2,2,0,0,1,3.08-2.56,18.08,18.08,0,0,0,11.34,6.35,2,2,0,0,1-.24,4Z"/><path class="cls-3" d="M97.63,72.37a21.72,21.72,0,0,1-14.21-5.45,2,2,0,1,1,2.65-3,17.74,17.74,0,0,0,12.15,4.44,2.13,2.13,0,0,1,2.08,1.93,2,2,0,0,1-1.93,2.08Z"/><path class="cls-3" d="M138.69,65.78a2,2,0,0,1-1.28-.46,17.89,17.89,0,0,1-6.32-14.67,1.93,1.93,0,0,1,2.16-1.84A2,2,0,0,1,135.09,51,13.78,13.78,0,0,0,140,62.24a2,2,0,0,1-1.28,3.54Z"/><path class="cls-3" d="M146.53,66.15A2,2,0,0,1,145,65.4a14.63,14.63,0,0,1-2.71-12.69,2,2,0,0,1,3.86,1.08,10.53,10.53,0,0,0,2,9.1,2,2,0,0,1-.3,2.82A2.06,2.06,0,0,1,146.53,66.15Z"/><path class="cls-3" d="M170.53,73.5a1.8,1.8,0,0,1-.46,0c-4-.93-8.47-2-12.17-4.72a2,2,0,1,1,2.37-3.22c3,2.24,6.94,3.15,10.71,4a2,2,0,0,1-.45,4Z"/><path class="cls-3" d="M173.43,82.49l-.27,0a19,19,0,0,1-7.26-2.57A2,2,0,0,1,168,76.47a15,15,0,0,0,5.72,2,2,2,0,0,1-.26,4Z"/><path class="cls-3" d="M80.71,82.09l-.72,0A2,2,0,0,1,78.05,80a1.92,1.92,0,0,1,2.07-1.93,18.89,18.89,0,0,0,7.51-1.33,2,2,0,1,1,1.49,3.72A22.64,22.64,0,0,1,80.71,82.09Z"/><path class="cls-3" d="M174.88,95.58a2,2,0,0,1-1.12-.34,34.48,34.48,0,0,1-6.88-6.13,2,2,0,0,1,3-2.61A30.87,30.87,0,0,0,176,91.91a2,2,0,0,1,.54,2.78A2,2,0,0,1,174.88,95.58Z"/><path class="cls-3" d="M74.82,96.24a2,2,0,0,1-1-3.76C77,90.8,82.33,83.8,83,79.74a2,2,0,1,1,4,.68c-.92,5.41-7.09,13.36-11.2,15.58A2,2,0,0,1,74.82,96.24Z"/></g></svg>