<svg id="레이어_1" data-name="레이어 1" xmlns="http://www.w3.org/2000/svg" viewBox="0 0 36 36"><title>대지 6</title><path d="M18,0A18,18,0,1,1,0,18,18,18,0,0,1,18,0Zm1,2.59c.33.41.64.78.91,1.16a1,1,0,0,1,0,1.17,2.84,2.84,0,0,1-1.81,1.42c-.45.11-.92.18-1.37.29-1,.22-1.92.47-2.88.67-.53.11-.63,0-.6-.56s.12-1.14.18-1.71-.08-.61-.53-.61a5.28,5.28,0,0,0-1.19.12c-.88.21-1.12.67-.84,1.54a1.34,1.34,0,0,0,.19.44,1.58,1.58,0,0,1,.24,1.33,3.88,3.88,0,0,0,0,.48,1.91,1.91,0,0,1-1.18,1.84,8.59,8.59,0,0,1-1.33.57,2.23,2.23,0,0,0-1.2.81c-.31.38-.65.74-1,1.1-.57.63-1.18,1.22-1.68,1.89a2.09,2.09,0,0,0,1,3.3c1,.43,2,1,2.94,1.53a2.1,2.1,0,0,1,.68.61,5.7,5.7,0,0,0,2.75,2.14c.11,0,.21.11.32.16a1.28,1.28,0,0,1,.65.77,3.88,3.88,0,0,1-1.32,4.39c-.42.36-.89.65-1.33,1a1.61,1.61,0,0,0-.74,1.91,1.76,1.76,0,0,1,.09.51.73.73,0,0,0,.44.61,15.24,15.24,0,0,0,10.24,1.77A15.43,15.43,0,0,0,33.42,17.14,4.05,4.05,0,0,0,33.28,16a1,1,0,0,0-.57-.63c-.31-.08-.28.33-.37.55a.6.6,0,0,0-.06.23,1.27,1.27,0,0,1-.84,1c-.33.12-.4.39-.21.72s.36.5.53.76a.8.8,0,0,1-.05,1c-.2.26-.41.5-.61.75A4.94,4.94,0,0,0,30,22.7a8.37,8.37,0,0,1-.74,2.37,9.11,9.11,0,0,0-.48,1.39,4.84,4.84,0,0,1-.38,1.13,5.41,5.41,0,0,1-3,2.19.69.69,0,0,1-.93-.41,7,7,0,0,1-.37-.89c-.22-.59-.45-1.19-.64-1.8a1.73,1.73,0,0,1-.15-.85,7.32,7.32,0,0,0-.45-4,1.48,1.48,0,0,0-1.95-1,1.88,1.88,0,0,1-.91.05A3.24,3.24,0,0,1,17.59,19,5.62,5.62,0,0,1,18,14a5,5,0,0,1,1.5-1.83,8.85,8.85,0,0,1,2.63-.74,1.72,1.72,0,0,1,2.08.7,7.45,7.45,0,0,0,.57.67A.93.93,0,0,0,26,13a.83.83,0,0,1,.87,0c.4.2,1.05.6,1.47.27s.15-1-.28-1.18a3.4,3.4,0,0,0-1.2-.36,1,1,0,0,1-.92-.5c-.18-.34-.38-.67-.59-1s-.66-.42-1.11-.1c.36.26,1.11.58,1.09,1.1s-.73.75-.89.2c0-.08,0-.16,0-.24-.1-.56-.92-1-1.37-1.24a.77.77,0,0,0-1,.11c-.3.32-.58.66-.85,1a1.12,1.12,0,0,1-1.21.33c-.41-.08-.81-.19-1-.67A1.61,1.61,0,0,1,20.55,8.6,2,2,0,0,0,22.15,8c.31-.3.41-.52.22-.92s-.12-.84.44-1.08.88-.39,1.33-.55a.92.92,0,0,1,.61,0c.8.33,1.59.7,2.37,1.06a2.35,2.35,0,0,0,1.51.28A15.52,15.52,0,0,0,19,2.59ZM8.91,30.38l-.64-.81A6.2,6.2,0,0,1,6.7,26.46a3.85,3.85,0,0,0-1.07-2.18,4.63,4.63,0,0,1-1-1.55,33,33,0,0,1-.84-3.25,5.51,5.51,0,0,0-.9-2.13c-.08-.11-.18-.2-.29-.34C1.76,21.14,4.93,27.91,8.91,30.38Z"/></svg>